<?xml version="1.0" encoding="UTF-8"?>
<svg width="1000px" height="403px" viewBox="0 0 1000 403" version="1.1" xmlns="http://www.w3.org/2000/svg" xmlns:xlink="http://www.w3.org/1999/xlink">
    <!-- Generator: Sketch 52.2 (67145) - http://www.bohemiancoding.com/sketch -->
    <title>iam</title>
    <desc>Created with Sketch.</desc>
    <defs>
        <polygon id="path-1" points="0.867647059 0.43026087 1.30589559 0.43026087 1.30589559 1.29982609 0.867647059 1.29982609"></polygon>
        <polygon id="path-3" points="0.438248529 0.434521739 0.876323529 0.434521739 0.876323529 1.30408696 0.438248529 1.30408696"></polygon>
        <polygon id="path-5" points="0.340811765 0.43026087 1.20845882 0.43026087 1.20845882 0.869565217 0.340811765 0.869565217"></polygon>
        <polygon id="path-7" points="0.336213235 0.860869565 1.20386029 0.860869565 1.20386029 1.29982609 0.336213235 1.29982609"></polygon>
        <polygon id="path-9" points="0.867647059 0.43026087 1.30589559 0.43026087 1.30589559 1.29982609 0.867647059 1.29982609"></polygon>
        <polygon id="path-11" points="0.438248529 0.434521739 0.876323529 0.434521739 0.876323529 1.30408696 0.438248529 1.30408696"></polygon>
        <polygon id="path-13" points="0.340811765 0.43026087 1.20845882 0.43026087 1.20845882 0.869565217 0.340811765 0.869565217"></polygon>
        <polygon id="path-15" points="0.336213235 0.860869565 1.20386029 0.860869565 1.20386029 1.29982609 0.336213235 1.29982609"></polygon>
        <polygon id="path-17" points="0.869565217 0.430434783 1.30869565 0.430434783 1.30869565 1.3 0.869565217 1.3"></polygon>
        <polygon id="path-19" points="0.439130435 0.434695652 0.87826087 0.434695652 0.87826087 1.30426087 0.439130435 1.30426087"></polygon>
        <polygon id="path-21" points="0.341478261 0.430434783 1.21104348 0.430434783 1.21104348 0.869565217 0.341478261 0.869565217"></polygon>
        <polygon id="path-23" points="0.337304348 0.860869565 1.20686957 0.860869565 1.20686957 1.3 0.337304348 1.3"></polygon>
        <polygon id="path-25" points="0.869565217 58.2694783 58.2695652 58.2694783 58.2695652 0.869478261 0.869565217 0.869478261"></polygon>
        <polygon id="path-27" points="0.867647059 0.43026087 1.30589559 0.43026087 1.30589559 1.29982609 0.867647059 1.29982609"></polygon>
        <polygon id="path-29" points="0.438248529 0.434521739 0.876323529 0.434521739 0.876323529 1.30408696 0.438248529 1.30408696"></polygon>
        <polygon id="path-31" points="0.340811765 0.43026087 1.20845882 0.43026087 1.20845882 0.869565217 0.340811765 0.869565217"></polygon>
        <polygon id="path-33" points="0.336213235 0.860869565 1.20386029 0.860869565 1.20386029 1.29982609 0.336213235 1.29982609"></polygon>
    </defs>
    <g id="iam" stroke="none" stroke-width="1" fill="none" fill-rule="evenodd">
        <path d="M208.808753,177.686195 C208.808753,165.708854 199.045817,156 186.99886,156 C174.954183,156 165.188967,165.708854 165.188967,177.686195 C165.188967,186.07779 169.991794,193.341919 177.005699,196.948 C163.791657,200.811659 153.812172,212.1315 152,226 L222,226 C220.187828,212.1315 210.208343,200.811659 196.994301,196.948 C204.005927,193.341919 208.808753,186.07779 208.808753,177.686195 Z" id="Fill-1" fill="#4A4C54"></path>
        <path id="Line" d="M320.111992,190.96 L222.18,190.96 L221.68,190.96 L221.68,189.96 L222.18,189.96 L320.111992,189.96 L320.111992,185.96 L329.111992,190.46 L320.111992,194.96 L320.111992,190.96 Z" fill="#00A9E0" fill-rule="nonzero"></path>
        <path id="Line" d="M320.988329,310.707935 L186.931418,233.893828 L186.49759,233.645246 L186.994754,232.77759 L187.428582,233.026172 L321.485493,309.840278 L323.474149,306.369652 L329.04582,314.748582 L318.999673,314.178561 L320.988329,310.707935 Z" fill="#EC6C20" fill-rule="nonzero"></path>
        <path id="Line" d="M615.111992,262.5 L615.111992,325 L615.111992,325.5 L614.111992,325.5 L614.111992,325 L614.111992,262.5 L610.111992,262.5 L614.611992,253.5 L619.111992,262.5 L615.111992,262.5 Z" fill="#EC6C20" fill-rule="nonzero"></path>
        <path d="M614.611992,325 L414.945312,325" id="Line" stroke="#EC6C20" stroke-linecap="square"></path>
        <path id="Line" d="M322.955138,90.3919688 L222.533553,190.813553 L222.18,191.167107 L221.472893,190.46 L221.826447,190.106447 L322.248031,89.6848621 L319.419604,86.8564349 L328.965546,83.6744544 L325.783565,93.220396 L322.955138,90.3919688 Z" fill="#00A9E0" fill-rule="nonzero"></path>
        <g id="Group" transform="translate(741.000000, 161.000000)">
            <g id="Group-31">
                <polygon id="Stroke-1" stroke="#FFFFFF" stroke-width="2.60000014" points="0.922576357 58.9849078 59.6737076 58.9849078 59.6737076 0.00451568627 0.922576357 0.00451568627"></polygon>
                <polygon id="Fill-3" fill="#4A4C54" points="0.905134615 17.8829471 59.6562658 17.8829471 59.6562658 0.00451568627 0.905134615 0.00451568627"></polygon>
                <polygon id="Fill-4" fill="#4A4C54" points="0.905134615 37.5206529 59.6562658 37.5206529 59.6562658 21.4770647 0.905134615 21.4770647"></polygon>
                <polygon id="Fill-5" fill="#4A4C54" points="0.905134615 58.9849078 59.6562658 58.9849078 59.6562658 41.1249078 0.905134615 41.1249078"></polygon>
                <g id="Group-30" transform="translate(7.343891, 6.460104)">
                    <path d="M4.40752822,2.48003333 C4.40752822,3.55826863 3.53635911,4.43283725 2.46231499,4.43283725 C1.38735288,4.43283725 0.516183767,3.55826863 0.516183767,2.48003333 C0.516183767,1.40087647 1.38735288,0.526307843 2.46231499,0.526307843 C3.53635911,0.526307843 4.40752822,1.40087647 4.40752822,2.48003333" id="Fill-6" fill="#FFFFFF"></path>
                    <path d="M10.322023,2.48003333 L43.4796926,2.48003333" id="Stroke-8" stroke="#FFFFFF" stroke-width="5.20000029"></path>
                    <path d="M4.40752822,22.9974686 C4.40752822,24.0766255 3.53635911,24.9511941 2.46231499,24.9511941 C1.38735288,24.9511941 0.516183767,24.0766255 0.516183767,22.9974686 C0.516183767,21.9192333 1.38735288,21.0446647 2.46231499,21.0446647 C3.53635911,21.0446647 4.40752822,21.9192333 4.40752822,22.9974686" id="Fill-10" fill="#FFFFFF"></path>
                    <path d="M10.322023,22.9974686 L43.4796926,22.9974686" id="Stroke-12" stroke="#FFFFFF" stroke-width="5.20000029"></path>
                    <path d="M4.40752822,43.6509275 C4.40752822,44.7291627 3.53635911,45.6037314 2.46231499,45.6037314 C1.38735288,45.6037314 0.516183767,44.7291627 0.516183767,43.6509275 C0.516183767,42.5717706 1.38735288,41.6981235 2.46231499,41.6981235 C3.53635911,41.6981235 4.40752822,42.5717706 4.40752822,43.6509275" id="Fill-14" fill="#FFFFFF"></path>
                    <path d="M10.322023,43.6509275 L43.4796926,43.6509275" id="Stroke-16" stroke="#FFFFFF" stroke-width="5.20000029"></path>
                </g>
            </g>
        </g>
        <path id="Line" d="M408.5,190.46 L417.5,185.96 L417.5,194.96 L408.5,190.46 Z M585,189.96 L585.5,189.96 L585.5,190.96 L585,190.96 L580,190.96 L579.5,190.96 L579.5,189.96 L580,189.96 L585,189.96 Z M575,189.96 L575.5,189.96 L575.5,190.96 L575,190.96 L570,190.96 L569.5,190.96 L569.5,189.96 L570,189.96 L575,189.96 Z M565,189.96 L565.5,189.96 L565.5,190.96 L565,190.96 L560,190.96 L559.5,190.96 L559.5,189.96 L560,189.96 L565,189.96 Z M555,189.96 L555.5,189.96 L555.5,190.96 L555,190.96 L550,190.96 L549.5,190.96 L549.5,189.96 L550,189.96 L555,189.96 Z M545,189.96 L545.5,189.96 L545.5,190.96 L545,190.96 L540,190.96 L539.5,190.96 L539.5,189.96 L540,189.96 L545,189.96 Z M535,189.96 L535.5,189.96 L535.5,190.96 L535,190.96 L530,190.96 L529.5,190.96 L529.5,189.96 L530,189.96 L535,189.96 Z M525,189.96 L525.5,189.96 L525.5,190.96 L525,190.96 L520,190.96 L519.5,190.96 L519.5,189.96 L520,189.96 L525,189.96 Z M515,189.96 L515.5,189.96 L515.5,190.96 L515,190.96 L510,190.96 L509.5,190.96 L509.5,189.96 L510,189.96 L515,189.96 Z M505,189.96 L505.5,189.96 L505.5,190.96 L505,190.96 L500,190.96 L499.5,190.96 L499.5,189.96 L500,189.96 L505,189.96 Z M495,189.96 L495.5,189.96 L495.5,190.96 L495,190.96 L490,190.96 L489.5,190.96 L489.5,189.96 L490,189.96 L495,189.96 Z M485,189.96 L485.5,189.96 L485.5,190.96 L485,190.96 L480,190.96 L479.5,190.96 L479.5,189.96 L480,189.96 L485,189.96 Z M475,189.96 L475.5,189.96 L475.5,190.96 L475,190.96 L470,190.96 L469.5,190.96 L469.5,189.96 L470,189.96 L475,189.96 Z M465,189.96 L465.5,189.96 L465.5,190.96 L465,190.96 L460,190.96 L459.5,190.96 L459.5,189.96 L460,189.96 L465,189.96 Z M455,189.96 L455.5,189.96 L455.5,190.96 L455,190.96 L450,190.96 L449.5,190.96 L449.5,189.96 L450,189.96 L455,189.96 Z M445,189.96 L445.5,189.96 L445.5,190.96 L445,190.96 L440,190.96 L439.5,190.96 L439.5,189.96 L440,189.96 L445,189.96 Z M435,189.96 L435.5,189.96 L435.5,190.96 L435,190.96 L430,190.96 L429.5,190.96 L429.5,189.96 L430,189.96 L435,189.96 Z M425,189.96 L425.5,189.96 L425.5,190.96 L425,190.96 L420,190.96 L419.5,190.96 L419.5,189.96 L420,189.96 L425,189.96 Z" fill="#00A9E0" fill-rule="nonzero"></path>
        <path id="Line" d="M652.5,189.96 L737.449219,189.96 L737.949219,189.96 L737.949219,190.96 L737.449219,190.96 L652.5,190.96 L652.5,194.96 L643.5,190.46 L652.5,185.96 L652.5,189.96 Z" fill="#00A9E0" fill-rule="nonzero"></path>
        <rect id="Rectangle" fill="#FFFFFF" x="453" y="170" width="99" height="40"></rect>
        <path d="M481.67,186.22 L481.67,178.016 L478.562,178.016 L478.562,176.42 L486.514,176.42 L486.514,178.016 L483.406,178.016 L483.406,186.22 L481.67,186.22 Z M487.13,186.22 L487.13,178.828 L488.824,178.828 L488.824,180.494 C489.286,179.388 490.14,178.632 491.442,178.688 L491.442,180.48 L491.344,180.48 C489.86,180.48 488.824,181.446 488.824,183.406 L488.824,186.22 L487.13,186.22 Z M495.46,186.374 C493.794,186.374 492.828,185.254 492.828,183.532 L492.828,178.828 L494.522,178.828 L494.522,183.028 C494.522,184.176 495.096,184.82 496.104,184.82 C497.084,184.82 497.77,184.148 497.77,183 L497.77,178.828 L499.478,178.828 L499.478,186.22 L497.77,186.22 L497.77,185.072 C497.294,185.772 496.608,186.374 495.46,186.374 Z M504.126,186.36 C503.076,186.36 501.914,185.982 500.99,185.254 L501.746,184.106 C502.558,184.708 503.412,185.016 504.168,185.016 C504.896,185.016 505.316,184.708 505.316,184.218 L505.316,184.19 C505.316,183.616 504.532,183.42 503.664,183.154 C502.572,182.846 501.354,182.398 501.354,180.984 L501.354,180.956 C501.354,179.556 502.516,178.702 503.986,178.702 C504.91,178.702 505.918,179.024 506.702,179.542 L506.03,180.746 C505.316,180.312 504.56,180.046 503.944,180.046 C503.286,180.046 502.908,180.354 502.908,180.774 L502.908,180.802 C502.908,181.348 503.706,181.572 504.574,181.852 C505.652,182.188 506.87,182.678 506.87,184.008 L506.87,184.036 C506.87,185.59 505.666,186.36 504.126,186.36 Z M510.944,186.346 C509.698,186.346 508.816,185.8 508.816,184.176 L508.816,180.284 L507.878,180.284 L507.878,178.828 L508.816,178.828 L508.816,176.798 L510.51,176.798 L510.51,178.828 L512.498,178.828 L512.498,180.284 L510.51,180.284 L510.51,183.91 C510.51,184.568 510.846,184.834 511.42,184.834 C511.798,184.834 512.134,184.75 512.47,184.582 L512.47,185.968 C512.05,186.206 511.588,186.346 510.944,186.346 Z M517.398,186.388 C515.256,186.388 513.604,184.834 513.604,182.552 L513.604,182.524 C513.604,180.41 515.102,178.674 517.216,178.674 C519.568,178.674 520.758,180.522 520.758,182.65 C520.758,182.804 520.744,182.958 520.73,183.126 L515.298,183.126 C515.48,184.33 516.334,185.002 517.426,185.002 C518.252,185.002 518.84,184.694 519.428,184.12 L520.422,185.002 C519.722,185.842 518.756,186.388 517.398,186.388 Z M515.284,182.006 L519.078,182.006 C518.966,180.914 518.322,180.06 517.202,180.06 C516.166,180.06 515.438,180.858 515.284,182.006 Z M525.518,186.374 C523.782,186.374 522.088,184.988 522.088,182.538 L522.088,182.51 C522.088,180.06 523.754,178.674 525.518,178.674 C526.736,178.674 527.506,179.276 528.038,179.976 L528.038,176 L529.732,176 L529.732,186.22 L528.038,186.22 L528.038,184.988 C527.492,185.758 526.722,186.374 525.518,186.374 Z M525.924,184.904 C527.058,184.904 528.066,183.952 528.066,182.538 L528.066,182.51 C528.066,181.082 527.058,180.144 525.924,180.144 C524.762,180.144 523.796,181.04 523.796,182.51 L523.796,182.538 C523.796,183.966 524.776,184.904 525.924,184.904 Z M462,202.22 L462,192.42 L466.368,192.42 C467.6,192.42 468.566,192.784 469.196,193.4 C469.714,193.932 470.008,194.66 470.008,195.514 L470.008,195.542 C470.008,197.152 469.042,198.118 467.684,198.51 L470.33,202.22 L468.286,202.22 L465.878,198.804 L463.722,198.804 L463.722,202.22 L462,202.22 Z M463.722,197.278 L466.242,197.278 C467.474,197.278 468.258,196.634 468.258,195.64 L468.258,195.612 C468.258,194.562 467.502,193.988 466.228,193.988 L463.722,193.988 L463.722,197.278 Z M475.174,202.388 C473.032,202.388 471.38,200.834 471.38,198.552 L471.38,198.524 C471.38,196.41 472.878,194.674 474.992,194.674 C477.344,194.674 478.534,196.522 478.534,198.65 C478.534,198.804 478.52,198.958 478.506,199.126 L473.074,199.126 C473.256,200.33 474.11,201.002 475.202,201.002 C476.028,201.002 476.616,200.694 477.204,200.12 L478.198,201.002 C477.498,201.842 476.532,202.388 475.174,202.388 Z M473.06,198.006 L476.854,198.006 C476.742,196.914 476.098,196.06 474.978,196.06 C473.942,196.06 473.214,196.858 473.06,198.006 Z M480.34,202.22 L480.34,192 L482.034,192 L482.034,202.22 L480.34,202.22 Z M486.374,202.374 C484.988,202.374 483.756,201.576 483.756,200.092 L483.756,200.064 C483.756,198.468 485.002,197.684 486.808,197.684 C487.634,197.684 488.222,197.81 488.796,197.992 L488.796,197.81 C488.796,196.76 488.152,196.2 486.962,196.2 C486.136,196.2 485.52,196.382 484.848,196.662 L484.4,195.332 C485.212,194.968 486.01,194.73 487.186,194.73 C488.292,194.73 489.118,195.024 489.636,195.556 C490.182,196.088 490.434,196.872 490.434,197.838 L490.434,202.22 L488.782,202.22 L488.782,201.296 C488.278,201.898 487.508,202.374 486.374,202.374 Z M486.85,201.142 C487.97,201.142 488.824,200.498 488.824,199.56 L488.824,199.056 C488.39,198.888 487.816,198.762 487.144,198.762 C486.052,198.762 485.408,199.224 485.408,199.994 L485.408,200.022 C485.408,200.736 486.038,201.142 486.85,201.142 Z M494.872,202.346 C493.626,202.346 492.744,201.8 492.744,200.176 L492.744,196.284 L491.806,196.284 L491.806,194.828 L492.744,194.828 L492.744,192.798 L494.438,192.798 L494.438,194.828 L496.426,194.828 L496.426,196.284 L494.438,196.284 L494.438,199.91 C494.438,200.568 494.774,200.834 495.348,200.834 C495.726,200.834 496.062,200.75 496.398,200.582 L496.398,201.968 C495.978,202.206 495.516,202.346 494.872,202.346 Z M498.176,193.694 L498.176,192.084 L499.996,192.084 L499.996,193.694 L498.176,193.694 Z M498.246,202.22 L498.246,194.828 L499.94,194.828 L499.94,202.22 L498.246,202.22 Z M505.666,202.388 C503.412,202.388 501.746,200.666 501.746,198.566 L501.746,198.538 C501.746,196.424 503.426,194.674 505.694,194.674 C507.962,194.674 509.628,196.396 509.628,198.51 L509.628,198.538 C509.628,200.638 507.948,202.388 505.666,202.388 Z M505.694,200.904 C507.066,200.904 507.934,199.84 507.934,198.566 L507.934,198.538 C507.934,197.236 506.996,196.158 505.666,196.158 C504.308,196.158 503.44,197.222 503.44,198.51 L503.44,198.538 C503.44,199.826 504.378,200.904 505.694,200.904 Z M511.35,202.22 L511.35,194.828 L513.044,194.828 L513.044,195.962 C513.52,195.276 514.206,194.674 515.354,194.674 C517.02,194.674 517.986,195.794 517.986,197.502 L517.986,202.22 L516.292,202.22 L516.292,198.02 C516.292,196.872 515.718,196.214 514.71,196.214 C513.73,196.214 513.044,196.9 513.044,198.048 L513.044,202.22 L511.35,202.22 Z M522.564,202.36 C521.514,202.36 520.352,201.982 519.428,201.254 L520.184,200.106 C520.996,200.708 521.85,201.016 522.606,201.016 C523.334,201.016 523.754,200.708 523.754,200.218 L523.754,200.19 C523.754,199.616 522.97,199.42 522.102,199.154 C521.01,198.846 519.792,198.398 519.792,196.984 L519.792,196.956 C519.792,195.556 520.954,194.702 522.424,194.702 C523.348,194.702 524.356,195.024 525.14,195.542 L524.468,196.746 C523.754,196.312 522.998,196.046 522.382,196.046 C521.724,196.046 521.346,196.354 521.346,196.774 L521.346,196.802 C521.346,197.348 522.144,197.572 523.012,197.852 C524.09,198.188 525.308,198.678 525.308,200.008 L525.308,200.036 C525.308,201.59 524.104,202.36 522.564,202.36 Z M527.044,202.22 L527.044,192 L528.738,192 L528.738,195.962 C529.214,195.276 529.9,194.674 531.048,194.674 C532.714,194.674 533.68,195.794 533.68,197.502 L533.68,202.22 L531.986,202.22 L531.986,198.02 C531.986,196.872 531.412,196.214 530.404,196.214 C529.424,196.214 528.738,196.9 528.738,198.048 L528.738,202.22 L527.044,202.22 Z M535.752,193.694 L535.752,192.084 L537.572,192.084 L537.572,193.694 L535.752,193.694 Z M535.822,202.22 L535.822,194.828 L537.516,194.828 L537.516,202.22 L535.822,202.22 Z M539.728,204.46 L539.728,194.828 L541.422,194.828 L541.422,196.06 C541.968,195.29 542.738,194.674 543.942,194.674 C545.678,194.674 547.372,196.046 547.372,198.51 L547.372,198.538 C547.372,200.988 545.692,202.374 543.942,202.374 C542.71,202.374 541.94,201.758 541.422,201.072 L541.422,204.46 L539.728,204.46 Z M543.536,200.904 C544.698,200.904 545.65,199.994 545.65,198.538 L545.65,198.51 C545.65,197.082 544.684,196.144 543.536,196.144 C542.388,196.144 541.38,197.096 541.38,198.51 L541.38,198.538 C541.38,199.952 542.388,200.904 543.536,200.904 Z" id="Trusted-Relationship" fill="#00A9E0"></path>
        <rect id="Rectangle" fill="#FFFFFF" x="453" y="305" width="99" height="40"></rect>
        <path d="M481.67,321.22 L481.67,313.016 L478.562,313.016 L478.562,311.42 L486.514,311.42 L486.514,313.016 L483.406,313.016 L483.406,321.22 L481.67,321.22 Z M487.13,321.22 L487.13,313.828 L488.824,313.828 L488.824,315.494 C489.286,314.388 490.14,313.632 491.442,313.688 L491.442,315.48 L491.344,315.48 C489.86,315.48 488.824,316.446 488.824,318.406 L488.824,321.22 L487.13,321.22 Z M495.46,321.374 C493.794,321.374 492.828,320.254 492.828,318.532 L492.828,313.828 L494.522,313.828 L494.522,318.028 C494.522,319.176 495.096,319.82 496.104,319.82 C497.084,319.82 497.77,319.148 497.77,318 L497.77,313.828 L499.478,313.828 L499.478,321.22 L497.77,321.22 L497.77,320.072 C497.294,320.772 496.608,321.374 495.46,321.374 Z M504.126,321.36 C503.076,321.36 501.914,320.982 500.99,320.254 L501.746,319.106 C502.558,319.708 503.412,320.016 504.168,320.016 C504.896,320.016 505.316,319.708 505.316,319.218 L505.316,319.19 C505.316,318.616 504.532,318.42 503.664,318.154 C502.572,317.846 501.354,317.398 501.354,315.984 L501.354,315.956 C501.354,314.556 502.516,313.702 503.986,313.702 C504.91,313.702 505.918,314.024 506.702,314.542 L506.03,315.746 C505.316,315.312 504.56,315.046 503.944,315.046 C503.286,315.046 502.908,315.354 502.908,315.774 L502.908,315.802 C502.908,316.348 503.706,316.572 504.574,316.852 C505.652,317.188 506.87,317.678 506.87,319.008 L506.87,319.036 C506.87,320.59 505.666,321.36 504.126,321.36 Z M510.944,321.346 C509.698,321.346 508.816,320.8 508.816,319.176 L508.816,315.284 L507.878,315.284 L507.878,313.828 L508.816,313.828 L508.816,311.798 L510.51,311.798 L510.51,313.828 L512.498,313.828 L512.498,315.284 L510.51,315.284 L510.51,318.91 C510.51,319.568 510.846,319.834 511.42,319.834 C511.798,319.834 512.134,319.75 512.47,319.582 L512.47,320.968 C512.05,321.206 511.588,321.346 510.944,321.346 Z M517.398,321.388 C515.256,321.388 513.604,319.834 513.604,317.552 L513.604,317.524 C513.604,315.41 515.102,313.674 517.216,313.674 C519.568,313.674 520.758,315.522 520.758,317.65 C520.758,317.804 520.744,317.958 520.73,318.126 L515.298,318.126 C515.48,319.33 516.334,320.002 517.426,320.002 C518.252,320.002 518.84,319.694 519.428,319.12 L520.422,320.002 C519.722,320.842 518.756,321.388 517.398,321.388 Z M515.284,317.006 L519.078,317.006 C518.966,315.914 518.322,315.06 517.202,315.06 C516.166,315.06 515.438,315.858 515.284,317.006 Z M525.518,321.374 C523.782,321.374 522.088,319.988 522.088,317.538 L522.088,317.51 C522.088,315.06 523.754,313.674 525.518,313.674 C526.736,313.674 527.506,314.276 528.038,314.976 L528.038,311 L529.732,311 L529.732,321.22 L528.038,321.22 L528.038,319.988 C527.492,320.758 526.722,321.374 525.518,321.374 Z M525.924,319.904 C527.058,319.904 528.066,318.952 528.066,317.538 L528.066,317.51 C528.066,316.082 527.058,315.144 525.924,315.144 C524.762,315.144 523.796,316.04 523.796,317.51 L523.796,317.538 C523.796,318.966 524.776,319.904 525.924,319.904 Z M462,337.22 L462,327.42 L466.368,327.42 C467.6,327.42 468.566,327.784 469.196,328.4 C469.714,328.932 470.008,329.66 470.008,330.514 L470.008,330.542 C470.008,332.152 469.042,333.118 467.684,333.51 L470.33,337.22 L468.286,337.22 L465.878,333.804 L463.722,333.804 L463.722,337.22 L462,337.22 Z M463.722,332.278 L466.242,332.278 C467.474,332.278 468.258,331.634 468.258,330.64 L468.258,330.612 C468.258,329.562 467.502,328.988 466.228,328.988 L463.722,328.988 L463.722,332.278 Z M475.174,337.388 C473.032,337.388 471.38,335.834 471.38,333.552 L471.38,333.524 C471.38,331.41 472.878,329.674 474.992,329.674 C477.344,329.674 478.534,331.522 478.534,333.65 C478.534,333.804 478.52,333.958 478.506,334.126 L473.074,334.126 C473.256,335.33 474.11,336.002 475.202,336.002 C476.028,336.002 476.616,335.694 477.204,335.12 L478.198,336.002 C477.498,336.842 476.532,337.388 475.174,337.388 Z M473.06,333.006 L476.854,333.006 C476.742,331.914 476.098,331.06 474.978,331.06 C473.942,331.06 473.214,331.858 473.06,333.006 Z M480.34,337.22 L480.34,327 L482.034,327 L482.034,337.22 L480.34,337.22 Z M486.374,337.374 C484.988,337.374 483.756,336.576 483.756,335.092 L483.756,335.064 C483.756,333.468 485.002,332.684 486.808,332.684 C487.634,332.684 488.222,332.81 488.796,332.992 L488.796,332.81 C488.796,331.76 488.152,331.2 486.962,331.2 C486.136,331.2 485.52,331.382 484.848,331.662 L484.4,330.332 C485.212,329.968 486.01,329.73 487.186,329.73 C488.292,329.73 489.118,330.024 489.636,330.556 C490.182,331.088 490.434,331.872 490.434,332.838 L490.434,337.22 L488.782,337.22 L488.782,336.296 C488.278,336.898 487.508,337.374 486.374,337.374 Z M486.85,336.142 C487.97,336.142 488.824,335.498 488.824,334.56 L488.824,334.056 C488.39,333.888 487.816,333.762 487.144,333.762 C486.052,333.762 485.408,334.224 485.408,334.994 L485.408,335.022 C485.408,335.736 486.038,336.142 486.85,336.142 Z M494.872,337.346 C493.626,337.346 492.744,336.8 492.744,335.176 L492.744,331.284 L491.806,331.284 L491.806,329.828 L492.744,329.828 L492.744,327.798 L494.438,327.798 L494.438,329.828 L496.426,329.828 L496.426,331.284 L494.438,331.284 L494.438,334.91 C494.438,335.568 494.774,335.834 495.348,335.834 C495.726,335.834 496.062,335.75 496.398,335.582 L496.398,336.968 C495.978,337.206 495.516,337.346 494.872,337.346 Z M498.176,328.694 L498.176,327.084 L499.996,327.084 L499.996,328.694 L498.176,328.694 Z M498.246,337.22 L498.246,329.828 L499.94,329.828 L499.94,337.22 L498.246,337.22 Z M505.666,337.388 C503.412,337.388 501.746,335.666 501.746,333.566 L501.746,333.538 C501.746,331.424 503.426,329.674 505.694,329.674 C507.962,329.674 509.628,331.396 509.628,333.51 L509.628,333.538 C509.628,335.638 507.948,337.388 505.666,337.388 Z M505.694,335.904 C507.066,335.904 507.934,334.84 507.934,333.566 L507.934,333.538 C507.934,332.236 506.996,331.158 505.666,331.158 C504.308,331.158 503.44,332.222 503.44,333.51 L503.44,333.538 C503.44,334.826 504.378,335.904 505.694,335.904 Z M511.35,337.22 L511.35,329.828 L513.044,329.828 L513.044,330.962 C513.52,330.276 514.206,329.674 515.354,329.674 C517.02,329.674 517.986,330.794 517.986,332.502 L517.986,337.22 L516.292,337.22 L516.292,333.02 C516.292,331.872 515.718,331.214 514.71,331.214 C513.73,331.214 513.044,331.9 513.044,333.048 L513.044,337.22 L511.35,337.22 Z M522.564,337.36 C521.514,337.36 520.352,336.982 519.428,336.254 L520.184,335.106 C520.996,335.708 521.85,336.016 522.606,336.016 C523.334,336.016 523.754,335.708 523.754,335.218 L523.754,335.19 C523.754,334.616 522.97,334.42 522.102,334.154 C521.01,333.846 519.792,333.398 519.792,331.984 L519.792,331.956 C519.792,330.556 520.954,329.702 522.424,329.702 C523.348,329.702 524.356,330.024 525.14,330.542 L524.468,331.746 C523.754,331.312 522.998,331.046 522.382,331.046 C521.724,331.046 521.346,331.354 521.346,331.774 L521.346,331.802 C521.346,332.348 522.144,332.572 523.012,332.852 C524.09,333.188 525.308,333.678 525.308,335.008 L525.308,335.036 C525.308,336.59 524.104,337.36 522.564,337.36 Z M527.044,337.22 L527.044,327 L528.738,327 L528.738,330.962 C529.214,330.276 529.9,329.674 531.048,329.674 C532.714,329.674 533.68,330.794 533.68,332.502 L533.68,337.22 L531.986,337.22 L531.986,333.02 C531.986,331.872 531.412,331.214 530.404,331.214 C529.424,331.214 528.738,331.9 528.738,333.048 L528.738,337.22 L527.044,337.22 Z M535.752,328.694 L535.752,327.084 L537.572,327.084 L537.572,328.694 L535.752,328.694 Z M535.822,337.22 L535.822,329.828 L537.516,329.828 L537.516,337.22 L535.822,337.22 Z M539.728,339.46 L539.728,329.828 L541.422,329.828 L541.422,331.06 C541.968,330.29 542.738,329.674 543.942,329.674 C545.678,329.674 547.372,331.046 547.372,333.51 L547.372,333.538 C547.372,335.988 545.692,337.374 543.942,337.374 C542.71,337.374 541.94,336.758 541.422,336.072 L541.422,339.46 L539.728,339.46 Z M543.536,335.904 C544.698,335.904 545.65,334.994 545.65,333.538 L545.65,333.51 C545.65,332.082 544.684,331.144 543.536,331.144 C542.388,331.144 541.38,332.096 541.38,333.51 L541.38,333.538 C541.38,334.952 542.388,335.904 543.536,335.904 Z" id="Trusted-Relationship" fill="#EC6C20"></path>
        <g id="Group-19" transform="translate(585.000000, 161.000000)">
            <g id="Group-3" transform="translate(0.000000, 28.704261)">
                <mask id="mask-2" fill="white">
                    <use xlink:href="#path-1"></use>
                </mask>
                <g id="Clip-2"></g>
                <path d="M0.876410294,0.865043478 C0.876410294,0.867652174 0.874675,0.869391304 0.872072059,0.869391304 C0.869469118,0.869391304 0.867733824,0.867652174 0.867733824,0.865043478 C0.867733824,0.862434783 0.869469118,0.860695652 0.872072059,0.860695652 C0.874675,0.860695652 0.876410294,0.862434783 0.876410294,0.865043478" id="Fill-1" fill="#4A4C54" mask="url(#mask-2)"></path>
            </g>
            <g id="Group-6" transform="translate(57.264706, 28.704261)">
                <mask id="mask-4" fill="white">
                    <use xlink:href="#path-3"></use>
                </mask>
                <g id="Clip-5"></g>
                <path d="M0.876410294,0.869304348 C0.876410294,0.871913043 0.874675,0.873652174 0.872072059,0.873652174 C0.869469118,0.873652174 0.867733824,0.871913043 0.867733824,0.869304348 C0.867733824,0.867565217 0.869469118,0.864956522 0.872072059,0.864956522 C0.874675,0.864956522 0.876410294,0.867565217 0.876410294,0.869304348" id="Fill-4" fill="#4A4C54" mask="url(#mask-4)"></path>
            </g>
            <g id="Group-9" transform="translate(28.632353, 57.399913)">
                <mask id="mask-6" fill="white">
                    <use xlink:href="#path-5"></use>
                </mask>
                <g id="Clip-8"></g>
                <path d="M0.778973529,0.865043478 C0.778973529,0.867652174 0.777238235,0.869391304 0.774635294,0.869391304 C0.772032353,0.869391304 0.770297059,0.867652174 0.770297059,0.865043478 C0.770297059,0.862434783 0.772032353,0.860695652 0.774635294,0.860695652 C0.777238235,0.860695652 0.778973529,0.862434783 0.778973529,0.865043478" id="Fill-7" fill="#4A4C54" mask="url(#mask-6)"></path>
            </g>
            <g id="Group-12" transform="translate(28.632353, 0.008609)">
                <mask id="mask-8" fill="white">
                    <use xlink:href="#path-7"></use>
                </mask>
                <g id="Clip-11"></g>
                <path d="M0.774375,0.865043478 C0.774375,0.867652174 0.772639706,0.869391304 0.770036765,0.869391304 C0.768301471,0.869391304 0.765698529,0.867652174 0.765698529,0.865043478 C0.765698529,0.862434783 0.768301471,0.860695652 0.770036765,0.860695652 C0.772639706,0.860695652 0.774375,0.862434783 0.774375,0.865043478" id="Fill-10" fill="#4A4C54" mask="url(#mask-8)"></path>
            </g>
            <path d="M46.0789853,35 C39.9603382,35 35,39.9713043 35,46.1034783 C35,52.2347826 39.9603382,57.206087 46.0789853,57.206087 C52.1976324,57.206087 57.1571029,52.2347826 57.1571029,46.1034783 C57.1571029,39.9713043 52.1976324,35 46.0789853,35" id="Fill-13" fill="#FFB401"></path>
            <polygon id="Fill-1" fill="#FFFFFF" points="53.2582206 43.7205011 51.9053962 41.320622 47.9822053 43.6401356 47.9822053 39 45.2765564 39 45.2765564 43.6406898 41.3528244 41.320622 40 43.7205011 43.9231909 46.0411231 40 48.3606366 41.3528244 50.7605157 45.2765564 48.4404479 45.2765564 53.0617391 47.9822053 53.0617391 47.9822053 48.4410021 51.9053962 50.7605157 53.2582206 48.3606366 49.3344886 46.0411231"></polygon>
            <path d="M9.33596912,43.0543478 L20.2084544,43.0543478 C21.4821603,46.8178261 23.2912044,50.3491304 25.5965426,53.5326087 C18.8367044,52.4369565 13.0043809,48.5334783 9.33596912,43.0543478 Z M5.30574853,31.2917391 L18.0445426,31.2917391 C18.1573368,34.1221739 18.5512485,36.8943478 19.2019838,39.576087 L7.40458676,39.576087 C6.24454265,37.0186957 5.51398382,34.2273913 5.30574853,31.2917391 Z M7.46358676,19.3995652 L19.2340868,19.3995652 C18.5651309,22.1213043 18.1590721,24.9378261 18.0445426,27.8134783 L5.30574853,27.8134783 C5.51745441,24.8282609 6.26796912,21.9917391 7.46358676,19.3995652 Z M25.5965426,5.5726087 C23.3181015,8.72043478 21.524675,12.2056522 20.2535721,15.9213043 L9.42360147,15.9213043 C13.0963515,10.51 18.8904985,6.65956522 25.5965426,5.5726087 Z M35.020925,15.9213043 L23.9367338,15.9213043 C25.2720426,12.3952174 27.1357485,9.11869565 29.4783956,6.20652174 C31.8219103,9.11869565 33.6847485,12.3952174 35.020925,15.9213043 Z M49.5340574,15.9213043 L38.7040868,15.9213043 C37.4329838,12.2056522 35.6395574,8.72043478 33.3611162,5.5726087 C40.0671603,6.65956522 45.8613074,10.51 49.5340574,15.9213043 Z M53.6519103,27.8134783 L40.9131162,27.8134783 C40.7985868,24.9378261 40.3925279,22.1213043 39.7227044,19.3995652 L51.4932044,19.3995652 C52.6888221,21.9917391 53.4393368,24.8282609 53.6519103,27.8134783 Z M21.5142632,27.8134783 C21.6400721,24.9273913 22.0791015,22.1065217 22.8105279,19.3995652 L36.1462632,19.3995652 C36.8785574,22.1065217 37.3175868,24.9273913 37.4425279,27.8134783 L21.5142632,27.8134783 Z M33.5381162,53.4995652 C33.4782485,53.5091304 33.4201162,53.5230435 33.3602485,53.5326087 C33.3966897,53.4821739 33.4305279,53.4308696 33.4661015,53.3804348 C32.778925,52.1526087 32.2652779,50.816087 31.9555279,49.4021739 C31.2015426,50.616087 30.3755426,51.783913 29.4783956,52.8978261 C27.1062485,49.9508696 25.2234544,46.6291304 23.884675,43.0543478 L31.9798221,43.0543478 C32.2566015,41.8291304 32.6860868,40.6630435 33.2500574,39.576087 L22.778425,39.576087 C22.0678221,36.9073913 21.6383368,34.1317391 21.5142632,31.2917391 L37.4425279,31.2917391 C37.3896015,32.4995652 37.2707338,33.6934783 37.1093515,34.876087 C38.2251456,33.9830435 39.4728221,33.2552174 40.8202779,32.7204348 C40.8558515,32.2447826 40.8940279,31.77 40.9131162,31.2917391 L53.6519103,31.2917391 C53.5955132,32.0786957 53.4957338,32.8534783 53.3673221,33.6169565 C54.490925,34.2630435 55.5277632,35.0447826 56.4396603,35.956087 C56.9255426,33.8986957 57.1910426,31.7569565 57.1910426,29.5526087 C57.1910426,14.2378261 44.7593956,1.77869565 29.4783956,1.77869565 C14.1982632,1.77869565 1.76574853,14.2378261 1.76574853,29.5526087 C1.76574853,44.8673913 14.1982632,57.3265217 29.4783956,57.3265217 C31.6778809,57.3265217 33.8157632,57.0604348 35.8686162,56.5726087 C34.9601897,55.6613043 34.1810426,54.623913 33.5381162,53.4995652 Z" id="Fill-17" fill="#FFB401"></path>
        </g>
        <g id="Group-19" transform="translate(350.000000, 161.000000)">
            <g id="Group-3" transform="translate(0.000000, 28.704261)">
                <mask id="mask-10" fill="white">
                    <use xlink:href="#path-9"></use>
                </mask>
                <g id="Clip-2"></g>
                <path d="M0.876410294,0.865043478 C0.876410294,0.867652174 0.874675,0.869391304 0.872072059,0.869391304 C0.869469118,0.869391304 0.867733824,0.867652174 0.867733824,0.865043478 C0.867733824,0.862434783 0.869469118,0.860695652 0.872072059,0.860695652 C0.874675,0.860695652 0.876410294,0.862434783 0.876410294,0.865043478" id="Fill-1" fill="#4A4C54" mask="url(#mask-10)"></path>
            </g>
            <g id="Group-6" transform="translate(57.264706, 28.704261)">
                <mask id="mask-12" fill="white">
                    <use xlink:href="#path-11"></use>
                </mask>
                <g id="Clip-5"></g>
                <path d="M0.876410294,0.869304348 C0.876410294,0.871913043 0.874675,0.873652174 0.872072059,0.873652174 C0.869469118,0.873652174 0.867733824,0.871913043 0.867733824,0.869304348 C0.867733824,0.867565217 0.869469118,0.864956522 0.872072059,0.864956522 C0.874675,0.864956522 0.876410294,0.867565217 0.876410294,0.869304348" id="Fill-4" fill="#4A4C54" mask="url(#mask-12)"></path>
            </g>
            <g id="Group-9" transform="translate(28.632353, 57.399913)">
                <mask id="mask-14" fill="white">
                    <use xlink:href="#path-13"></use>
                </mask>
                <g id="Clip-8"></g>
                <path d="M0.778973529,0.865043478 C0.778973529,0.867652174 0.777238235,0.869391304 0.774635294,0.869391304 C0.772032353,0.869391304 0.770297059,0.867652174 0.770297059,0.865043478 C0.770297059,0.862434783 0.772032353,0.860695652 0.774635294,0.860695652 C0.777238235,0.860695652 0.778973529,0.862434783 0.778973529,0.865043478" id="Fill-7" fill="#4A4C54" mask="url(#mask-14)"></path>
            </g>
            <g id="Group-12" transform="translate(28.632353, 0.008609)">
                <mask id="mask-16" fill="white">
                    <use xlink:href="#path-15"></use>
                </mask>
                <g id="Clip-11"></g>
                <path d="M0.774375,0.865043478 C0.774375,0.867652174 0.772639706,0.869391304 0.770036765,0.869391304 C0.768301471,0.869391304 0.765698529,0.867652174 0.765698529,0.865043478 C0.765698529,0.862434783 0.768301471,0.860695652 0.770036765,0.860695652 C0.772639706,0.860695652 0.774375,0.862434783 0.774375,0.865043478" id="Fill-10" fill="#4A4C54" mask="url(#mask-16)"></path>
            </g>
            <path d="M46.1639426,35.1713913 C40.0452956,35.1713913 35.0849574,40.1426957 35.0849574,46.2748696 C35.0849574,52.4061739 40.0452956,57.3774783 46.1639426,57.3774783 C52.2825897,57.3774783 57.2420603,52.4061739 57.2420603,46.2748696 C57.2420603,40.1426957 52.2825897,35.1713913 46.1639426,35.1713913" id="Fill-13" fill="#494B54"></path>
            <polyline id="Stroke-15" stroke="#FFFFFF" stroke-width="4" points="52.5620588 42.6687826 44.8721029 50.3757391 40.1061176 45.5992174"></polyline>
            <path d="M9.33596912,43.0543478 L20.2084544,43.0543478 C21.4821603,46.8178261 23.2912044,50.3491304 25.5965426,53.5326087 C18.8367044,52.4369565 13.0043809,48.5334783 9.33596912,43.0543478 Z M5.30574853,31.2917391 L18.0445426,31.2917391 C18.1573368,34.1221739 18.5512485,36.8943478 19.2019838,39.576087 L7.40458676,39.576087 C6.24454265,37.0186957 5.51398382,34.2273913 5.30574853,31.2917391 Z M7.46358676,19.3995652 L19.2340868,19.3995652 C18.5651309,22.1213043 18.1590721,24.9378261 18.0445426,27.8134783 L5.30574853,27.8134783 C5.51745441,24.8282609 6.26796912,21.9917391 7.46358676,19.3995652 Z M25.5965426,5.5726087 C23.3181015,8.72043478 21.524675,12.2056522 20.2535721,15.9213043 L9.42360147,15.9213043 C13.0963515,10.51 18.8904985,6.65956522 25.5965426,5.5726087 Z M35.020925,15.9213043 L23.9367338,15.9213043 C25.2720426,12.3952174 27.1357485,9.11869565 29.4783956,6.20652174 C31.8219103,9.11869565 33.6847485,12.3952174 35.020925,15.9213043 Z M49.5340574,15.9213043 L38.7040868,15.9213043 C37.4329838,12.2056522 35.6395574,8.72043478 33.3611162,5.5726087 C40.0671603,6.65956522 45.8613074,10.51 49.5340574,15.9213043 Z M53.6519103,27.8134783 L40.9131162,27.8134783 C40.7985868,24.9378261 40.3925279,22.1213043 39.7227044,19.3995652 L51.4932044,19.3995652 C52.6888221,21.9917391 53.4393368,24.8282609 53.6519103,27.8134783 Z M21.5142632,27.8134783 C21.6400721,24.9273913 22.0791015,22.1065217 22.8105279,19.3995652 L36.1462632,19.3995652 C36.8785574,22.1065217 37.3175868,24.9273913 37.4425279,27.8134783 L21.5142632,27.8134783 Z M33.5381162,53.4995652 C33.4782485,53.5091304 33.4201162,53.5230435 33.3602485,53.5326087 C33.3966897,53.4821739 33.4305279,53.4308696 33.4661015,53.3804348 C32.778925,52.1526087 32.2652779,50.816087 31.9555279,49.4021739 C31.2015426,50.616087 30.3755426,51.783913 29.4783956,52.8978261 C27.1062485,49.9508696 25.2234544,46.6291304 23.884675,43.0543478 L31.9798221,43.0543478 C32.2566015,41.8291304 32.6860868,40.6630435 33.2500574,39.576087 L22.778425,39.576087 C22.0678221,36.9073913 21.6383368,34.1317391 21.5142632,31.2917391 L37.4425279,31.2917391 C37.3896015,32.4995652 37.2707338,33.6934783 37.1093515,34.876087 C38.2251456,33.9830435 39.4728221,33.2552174 40.8202779,32.7204348 C40.8558515,32.2447826 40.8940279,31.77 40.9131162,31.2917391 L53.6519103,31.2917391 C53.5955132,32.0786957 53.4957338,32.8534783 53.3673221,33.6169565 C54.490925,34.2630435 55.5277632,35.0447826 56.4396603,35.956087 C56.9255426,33.8986957 57.1910426,31.7569565 57.1910426,29.5526087 C57.1910426,14.2378261 44.7593956,1.77869565 29.4783956,1.77869565 C14.1982632,1.77869565 1.76574853,14.2378261 1.76574853,29.5526087 C1.76574853,44.8673913 14.1982632,57.3265217 29.4783956,57.3265217 C31.6778809,57.3265217 33.8157632,57.0604348 35.8686162,56.5726087 C34.9601897,55.6613043 34.1810426,54.623913 33.5381162,53.4995652 Z" id="Fill-17" fill="#494B54"></path>
        </g>
        <g id="Group-23" transform="translate(350.000000, 26.000000)">
            <g id="Group-3" transform="translate(0.000000, 28.704261)">
                <mask id="mask-18" fill="white">
                    <use xlink:href="#path-17"></use>
                </mask>
                <g id="Clip-2"></g>
                <path d="M0.87826087,0.865217391 C0.87826087,0.867826087 0.876521739,0.869565217 0.873913043,0.869565217 C0.871304348,0.869565217 0.869565217,0.867826087 0.869565217,0.865217391 C0.869565217,0.862608696 0.871304348,0.860869565 0.873913043,0.860869565 C0.876521739,0.860869565 0.87826087,0.862608696 0.87826087,0.865217391" id="Fill-1" fill="#494B54" mask="url(#mask-18)"></path>
            </g>
            <g id="Group-6" transform="translate(57.391304, 28.704261)">
                <mask id="mask-20" fill="white">
                    <use xlink:href="#path-19"></use>
                </mask>
                <g id="Clip-5"></g>
                <path d="M0.87826087,0.869478261 C0.87826087,0.872086957 0.876521739,0.873826087 0.873913043,0.873826087 C0.871304348,0.873826087 0.869565217,0.872086957 0.869565217,0.869478261 C0.869565217,0.866869565 0.871304348,0.865130435 0.873913043,0.865130435 C0.876521739,0.865130435 0.87826087,0.866869565 0.87826087,0.869478261" id="Fill-4" fill="#494B54" mask="url(#mask-20)"></path>
            </g>
            <g id="Group-9" transform="translate(28.695652, 57.399913)">
                <mask id="mask-22" fill="white">
                    <use xlink:href="#path-21"></use>
                </mask>
                <g id="Clip-8"></g>
                <path d="M0.780608696,0.865217391 C0.780608696,0.867826087 0.778869565,0.869565217 0.77626087,0.869565217 C0.773652174,0.869565217 0.771913043,0.867826087 0.771913043,0.865217391 C0.771913043,0.862608696 0.773652174,0.860869565 0.77626087,0.860869565 C0.778869565,0.860869565 0.780608696,0.862608696 0.780608696,0.865217391" id="Fill-7" fill="#494B54" mask="url(#mask-22)"></path>
            </g>
            <g id="Group-12" transform="translate(28.695652, 0.008609)">
                <mask id="mask-24" fill="white">
                    <use xlink:href="#path-23"></use>
                </mask>
                <g id="Clip-11"></g>
                <path d="M0.776434783,0.865217391 C0.776434783,0.867826087 0.774695652,0.869565217 0.772086957,0.869565217 C0.769478261,0.869565217 0.76773913,0.867826087 0.76773913,0.865217391 C0.76773913,0.862608696 0.769478261,0.860869565 0.772086957,0.860869565 C0.774695652,0.860869565 0.776434783,0.862608696 0.776434783,0.865217391" id="Fill-10" fill="#494B54" mask="url(#mask-24)"></path>
            </g>
            <polygon id="Fill-13" fill="#A4A5A9" points="45.3017391 13.7823478 57.3278261 13.7823478 57.3278261 13.771913 45.3121739 1.75626087 45.3017391 1.75626087"></polygon>
            <polygon id="Fill-15" fill="#A4A5A9" points="41.8234783 17.2606087 41.8234783 1.75626087 15.4547826 1.73104348 15.4547826 57.3832174 57.3278261 57.4084348 57.3278261 17.2606087"></polygon>
            <mask id="mask-26" fill="white">
                <use xlink:href="#path-25"></use>
            </mask>
            <g id="Clip-18"></g>
            <polygon id="Fill-17" fill="#A4A5A9" mask="url(#mask-26)" points="8.50086957 57.4181739 11.9791304 57.4181739 11.9791304 1.766 8.50086957 1.766"></polygon>
            <polygon id="Fill-19" fill="#A4A5A9" mask="url(#mask-26)" points="1.54434783 57.4181739 5.0226087 57.4181739 5.0226087 1.766 1.54434783 1.766"></polygon>
            <path d="M25.7916522,26.0776522 L46.989913,26.0776522" id="Stroke-20" stroke="#FFFFFF" stroke-width="4" mask="url(#mask-26)"></path>
            <path d="M25.7916522,34.7733043 L41.1873043,34.7733043" id="Stroke-21" stroke="#FFFFFF" stroke-width="4" mask="url(#mask-26)"></path>
            <path d="M25.7916522,43.4689565 L44.4116522,43.4689565" id="Stroke-22" stroke="#FFFFFF" stroke-width="4" mask="url(#mask-26)"></path>
        </g>
        <g id="Group-19" transform="translate(350.000000, 295.000000)">
            <g id="Group-3" transform="translate(0.000000, 28.704261)">
                <mask id="mask-28" fill="white">
                    <use xlink:href="#path-27"></use>
                </mask>
                <g id="Clip-2"></g>
                <path d="M0.876410294,0.865043478 C0.876410294,0.867652174 0.874675,0.869391304 0.872072059,0.869391304 C0.869469118,0.869391304 0.867733824,0.867652174 0.867733824,0.865043478 C0.867733824,0.862434783 0.869469118,0.860695652 0.872072059,0.860695652 C0.874675,0.860695652 0.876410294,0.862434783 0.876410294,0.865043478" id="Fill-1" fill="#4A4C54" mask="url(#mask-28)"></path>
            </g>
            <g id="Group-6" transform="translate(57.264706, 28.704261)">
                <mask id="mask-30" fill="white">
                    <use xlink:href="#path-29"></use>
                </mask>
                <g id="Clip-5"></g>
                <path d="M0.876410294,0.869304348 C0.876410294,0.871913043 0.874675,0.873652174 0.872072059,0.873652174 C0.869469118,0.873652174 0.867733824,0.871913043 0.867733824,0.869304348 C0.867733824,0.867565217 0.869469118,0.864956522 0.872072059,0.864956522 C0.874675,0.864956522 0.876410294,0.867565217 0.876410294,0.869304348" id="Fill-4" fill="#4A4C54" mask="url(#mask-30)"></path>
            </g>
            <g id="Group-9" transform="translate(28.632353, 57.399913)">
                <mask id="mask-32" fill="white">
                    <use xlink:href="#path-31"></use>
                </mask>
                <g id="Clip-8"></g>
                <path d="M0.778973529,0.865043478 C0.778973529,0.867652174 0.777238235,0.869391304 0.774635294,0.869391304 C0.772032353,0.869391304 0.770297059,0.867652174 0.770297059,0.865043478 C0.770297059,0.862434783 0.772032353,0.860695652 0.774635294,0.860695652 C0.777238235,0.860695652 0.778973529,0.862434783 0.778973529,0.865043478" id="Fill-7" fill="#4A4C54" mask="url(#mask-32)"></path>
            </g>
            <g id="Group-12" transform="translate(28.632353, 0.008609)">
                <mask id="mask-34" fill="white">
                    <use xlink:href="#path-33"></use>
                </mask>
                <g id="Clip-11"></g>
                <path d="M0.774375,0.865043478 C0.774375,0.867652174 0.772639706,0.869391304 0.770036765,0.869391304 C0.768301471,0.869391304 0.765698529,0.867652174 0.765698529,0.865043478 C0.765698529,0.862434783 0.768301471,0.860695652 0.770036765,0.860695652 C0.772639706,0.860695652 0.774375,0.862434783 0.774375,0.865043478" id="Fill-10" fill="#4A4C54" mask="url(#mask-34)"></path>
            </g>
            <path d="M46.1639426,35.1713913 C40.0452956,35.1713913 35.0849574,40.1426957 35.0849574,46.2748696 C35.0849574,52.4061739 40.0452956,57.3774783 46.1639426,57.3774783 C52.2825897,57.3774783 57.2420603,52.4061739 57.2420603,46.2748696 C57.2420603,40.1426957 52.2825897,35.1713913 46.1639426,35.1713913" id="Fill-13" fill="#494B54"></path>
            <path d="M46.5002993,49 C45.1193583,49 44,47.8807757 44,46.4994015 C44,45.1192243 45.1193583,44 46.5002993,44 C47.8812403,44 49,45.1192243 49,46.4994015 C49,47.8807757 47.8812403,49 46.5002993,49 M52.3187599,46.4997058 C52.3187599,46.4826423 52.3187599,46.4655788 52.3187599,46.4479269 C52.3122019,45.7336131 52.6657393,45.0634292 53.2899444,44.7003883 L54,44.2873338 L52.0939984,41.0970462 L51.3779809,41.5136312 C50.7656995,41.8690229 50.0091415,41.8707881 49.3926868,41.5218687 C49.3861288,41.51775 49.3801669,41.514808 49.3736089,41.5112776 C48.7571542,41.1653003 48.3761924,40.5204174 48.3761924,39.8208136 L48.3761924,39 L44.6238076,39 L44.6238076,39.8202252 C44.6238076,40.519829 44.2428458,41.1653003 43.6263911,41.5106892 C43.6198331,41.514808 43.6138712,41.51775 43.6073132,41.5212804 C42.9908585,41.8707881 42.2343005,41.8690229 41.6220191,41.5130428 L40.9060016,41.0970462 L39,44.2873338 L39.7106518,44.7003883 C40.3348569,45.0634292 40.6877981,45.7336131 40.6812401,46.4485153 C40.6812401,46.4661672 40.6812401,46.4832307 40.6812401,46.4997058 C40.6812401,46.5173577 40.6812401,46.5344212 40.6812401,46.5514847 C40.6877981,47.2669752 40.3348569,47.9371592 39.7106518,48.3002001 L39,48.7132546 L40.9060016,51.9035421 L41.6220191,51.4875456 C42.2343005,51.1309771 42.9908585,51.1292119 43.6073132,51.4781313 C43.6138712,51.48225 43.6198331,51.4857804 43.6263911,51.4893108 C44.2428458,51.8352881 44.6238076,52.4795826 44.6238076,53.1797748 L44.6238076,54 L48.3761924,54 L48.3761924,53.1797748 C48.3761924,52.4795826 48.7571542,51.8352881 49.3736089,51.4893108 C49.3801669,51.4857804 49.3861288,51.48225 49.3926868,51.4781313 C50.0091415,51.1292119 50.7656995,51.1309771 51.3779809,51.4869572 L52.0939984,51.9035421 L54,48.7132546 L53.2899444,48.3002001 C52.6657393,47.9371592 52.3122019,47.2669752 52.3187599,46.5520731 C52.3187599,46.5350096 52.3187599,46.5179461 52.3187599,46.4997058" id="Fill-15" fill="#FFFFFF"></path>
            <path d="M9.33596912,43.0543478 L20.2084544,43.0543478 C21.4821603,46.8178261 23.2912044,50.3491304 25.5965426,53.5326087 C18.8367044,52.4369565 13.0043809,48.5334783 9.33596912,43.0543478 Z M5.30574853,31.2917391 L18.0445426,31.2917391 C18.1573368,34.1221739 18.5512485,36.8943478 19.2019838,39.576087 L7.40458676,39.576087 C6.24454265,37.0186957 5.51398382,34.2273913 5.30574853,31.2917391 Z M7.46358676,19.3995652 L19.2340868,19.3995652 C18.5651309,22.1213043 18.1590721,24.9378261 18.0445426,27.8134783 L5.30574853,27.8134783 C5.51745441,24.8282609 6.26796912,21.9917391 7.46358676,19.3995652 Z M25.5965426,5.5726087 C23.3181015,8.72043478 21.524675,12.2056522 20.2535721,15.9213043 L9.42360147,15.9213043 C13.0963515,10.51 18.8904985,6.65956522 25.5965426,5.5726087 Z M35.020925,15.9213043 L23.9367338,15.9213043 C25.2720426,12.3952174 27.1357485,9.11869565 29.4783956,6.20652174 C31.8219103,9.11869565 33.6847485,12.3952174 35.020925,15.9213043 Z M49.5340574,15.9213043 L38.7040868,15.9213043 C37.4329838,12.2056522 35.6395574,8.72043478 33.3611162,5.5726087 C40.0671603,6.65956522 45.8613074,10.51 49.5340574,15.9213043 Z M53.6519103,27.8134783 L40.9131162,27.8134783 C40.7985868,24.9378261 40.3925279,22.1213043 39.7227044,19.3995652 L51.4932044,19.3995652 C52.6888221,21.9917391 53.4393368,24.8282609 53.6519103,27.8134783 Z M21.5142632,27.8134783 C21.6400721,24.9273913 22.0791015,22.1065217 22.8105279,19.3995652 L36.1462632,19.3995652 C36.8785574,22.1065217 37.3175868,24.9273913 37.4425279,27.8134783 L21.5142632,27.8134783 Z M33.5381162,53.4995652 C33.4782485,53.5091304 33.4201162,53.5230435 33.3602485,53.5326087 C33.3966897,53.4821739 33.4305279,53.4308696 33.4661015,53.3804348 C32.778925,52.1526087 32.2652779,50.816087 31.9555279,49.4021739 C31.2015426,50.616087 30.3755426,51.783913 29.4783956,52.8978261 C27.1062485,49.9508696 25.2234544,46.6291304 23.884675,43.0543478 L31.9798221,43.0543478 C32.2566015,41.8291304 32.6860868,40.6630435 33.2500574,39.576087 L22.778425,39.576087 C22.0678221,36.9073913 21.6383368,34.1317391 21.5142632,31.2917391 L37.4425279,31.2917391 C37.3896015,32.4995652 37.2707338,33.6934783 37.1093515,34.876087 C38.2251456,33.9830435 39.4728221,33.2552174 40.8202779,32.7204348 C40.8558515,32.2447826 40.8940279,31.77 40.9131162,31.2917391 L53.6519103,31.2917391 C53.5955132,32.0786957 53.4957338,32.8534783 53.3673221,33.6169565 C54.490925,34.2630435 55.5277632,35.0447826 56.4396603,35.956087 C56.9255426,33.8986957 57.1910426,31.7569565 57.1910426,29.5526087 C57.1910426,14.2378261 44.7593956,1.77869565 29.4783956,1.77869565 C14.1982632,1.77869565 1.76574853,14.2378261 1.76574853,29.5526087 C1.76574853,44.8673913 14.1982632,57.3265217 29.4783956,57.3265217 C31.6778809,57.3265217 33.8157632,57.0604348 35.8686162,56.5726087 C34.9601897,55.6613043 34.1810426,54.623913 33.5381162,53.4995652 Z" id="Fill-17" fill="#494B54"></path>
        </g>
        <path d="M347,107.22 L351.312,97.35 L352.908,97.35 L357.22,107.22 L355.4,107.22 L354.406,104.854 L349.772,104.854 L348.764,107.22 L347,107.22 Z M350.402,103.328 L353.776,103.328 L352.082,99.408 L350.402,103.328 Z M358.802,107.22 L358.802,97 L360.496,97 L360.496,107.22 L358.802,107.22 Z M362.806,107.22 L362.806,97 L364.5,97 L364.5,107.22 L362.806,107.22 Z M371.108,107.22 L371.108,97.42 L374.972,97.42 C377.268,97.42 378.696,98.722 378.696,100.696 L378.696,100.724 C378.696,102.922 376.932,104.07 374.776,104.07 L372.83,104.07 L372.83,107.22 L371.108,107.22 Z M372.83,102.516 L374.832,102.516 C376.134,102.516 376.946,101.788 376.946,100.766 L376.946,100.738 C376.946,99.59 376.12,98.988 374.832,98.988 L372.83,98.988 L372.83,102.516 Z M382.252,107.374 C380.866,107.374 379.634,106.576 379.634,105.092 L379.634,105.064 C379.634,103.468 380.88,102.684 382.686,102.684 C383.512,102.684 384.1,102.81 384.674,102.992 L384.674,102.81 C384.674,101.76 384.03,101.2 382.84,101.2 C382.014,101.2 381.398,101.382 380.726,101.662 L380.278,100.332 C381.09,99.968 381.888,99.73 383.064,99.73 C384.17,99.73 384.996,100.024 385.514,100.556 C386.06,101.088 386.312,101.872 386.312,102.838 L386.312,107.22 L384.66,107.22 L384.66,106.296 C384.156,106.898 383.386,107.374 382.252,107.374 Z M382.728,106.142 C383.848,106.142 384.702,105.498 384.702,104.56 L384.702,104.056 C384.268,103.888 383.694,103.762 383.022,103.762 C381.93,103.762 381.286,104.224 381.286,104.994 L381.286,105.022 C381.286,105.736 381.916,106.142 382.728,106.142 Z M391.632,109.488 C390.414,109.488 389.28,109.18 388.328,108.606 L388.958,107.332 C389.756,107.822 390.582,108.116 391.59,108.116 C393.102,108.116 393.928,107.332 393.928,105.848 L393.928,105.274 C393.312,106.072 392.542,106.632 391.324,106.632 C389.588,106.632 387.964,105.344 387.964,103.174 L387.964,103.146 C387.964,100.962 389.602,99.674 391.324,99.674 C392.57,99.674 393.34,100.248 393.914,100.934 L393.914,99.828 L395.608,99.828 L395.608,105.708 C395.608,106.954 395.286,107.878 394.67,108.494 C393.998,109.166 392.962,109.488 391.632,109.488 Z M391.772,105.19 C392.948,105.19 393.942,104.364 393.942,103.16 L393.942,103.132 C393.942,101.928 392.948,101.102 391.772,101.102 C390.596,101.102 389.672,101.914 389.672,103.132 L389.672,103.16 C389.672,104.364 390.61,105.19 391.772,105.19 Z M401.124,107.388 C398.982,107.388 397.33,105.834 397.33,103.552 L397.33,103.524 C397.33,101.41 398.828,99.674 400.942,99.674 C403.294,99.674 404.484,101.522 404.484,103.65 C404.484,103.804 404.47,103.958 404.456,104.126 L399.024,104.126 C399.206,105.33 400.06,106.002 401.152,106.002 C401.978,106.002 402.566,105.694 403.154,105.12 L404.148,106.002 C403.448,106.842 402.482,107.388 401.124,107.388 Z M399.01,103.006 L402.804,103.006 C402.692,101.914 402.048,101.06 400.928,101.06 C399.892,101.06 399.164,101.858 399.01,103.006 Z M408.726,107.36 C407.676,107.36 406.514,106.982 405.59,106.254 L406.346,105.106 C407.158,105.708 408.012,106.016 408.768,106.016 C409.496,106.016 409.916,105.708 409.916,105.218 L409.916,105.19 C409.916,104.616 409.132,104.42 408.264,104.154 C407.172,103.846 405.954,103.398 405.954,101.984 L405.954,101.956 C405.954,100.556 407.116,99.702 408.586,99.702 C409.51,99.702 410.518,100.024 411.302,100.542 L410.63,101.746 C409.916,101.312 409.16,101.046 408.544,101.046 C407.886,101.046 407.508,101.354 407.508,101.774 L407.508,101.802 C407.508,102.348 408.306,102.572 409.174,102.852 C410.252,103.188 411.47,103.678 411.47,105.008 L411.47,105.036 C411.47,106.59 410.266,107.36 408.726,107.36 Z" id="All-Pages" fill="#76787F"></path>
        <path d="M337.416,240.242 L334,230.372 L335.862,230.372 L338.2,237.638 L340.608,230.344 L342.064,230.344 L344.472,237.638 L346.81,230.372 L348.616,230.372 L345.214,240.242 L343.716,240.242 L341.308,233.2 L338.9,240.242 L337.416,240.242 Z M352.662,240.34 C350.52,240.34 348.868,238.786 348.868,236.504 L348.868,236.476 C348.868,234.362 350.366,232.626 352.48,232.626 C354.832,232.626 356.022,234.474 356.022,236.602 C356.022,236.756 356.008,236.91 355.994,237.078 L350.562,237.078 C350.744,238.282 351.598,238.954 352.69,238.954 C353.516,238.954 354.104,238.646 354.692,238.072 L355.686,238.954 C354.986,239.794 354.02,240.34 352.662,240.34 Z M350.548,235.958 L354.342,235.958 C354.23,234.866 353.586,234.012 352.466,234.012 C351.43,234.012 350.702,234.81 350.548,235.958 Z M361.944,240.326 C360.712,240.326 359.942,239.71 359.424,239.024 L359.424,240.172 L357.73,240.172 L357.73,229.952 L359.424,229.952 L359.424,234.012 C359.97,233.242 360.74,232.626 361.944,232.626 C363.68,232.626 365.374,233.998 365.374,236.462 L365.374,236.49 C365.374,238.94 363.694,240.326 361.944,240.326 Z M361.538,238.856 C362.7,238.856 363.652,237.946 363.652,236.49 L363.652,236.462 C363.652,235.034 362.686,234.096 361.538,234.096 C360.39,234.096 359.382,235.048 359.382,236.462 L359.382,236.49 C359.382,237.904 360.39,238.856 361.538,238.856 Z M369.658,240.312 C368.608,240.312 367.446,239.934 366.522,239.206 L367.278,238.058 C368.09,238.66 368.944,238.968 369.7,238.968 C370.428,238.968 370.848,238.66 370.848,238.17 L370.848,238.142 C370.848,237.568 370.064,237.372 369.196,237.106 C368.104,236.798 366.886,236.35 366.886,234.936 L366.886,234.908 C366.886,233.508 368.048,232.654 369.518,232.654 C370.442,232.654 371.45,232.976 372.234,233.494 L371.562,234.698 C370.848,234.264 370.092,233.998 369.476,233.998 C368.818,233.998 368.44,234.306 368.44,234.726 L368.44,234.754 C368.44,235.3 369.238,235.524 370.106,235.804 C371.184,236.14 372.402,236.63 372.402,237.96 L372.402,237.988 C372.402,239.542 371.198,240.312 369.658,240.312 Z M374.166,231.646 L374.166,230.036 L375.986,230.036 L375.986,231.646 L374.166,231.646 Z M374.236,240.172 L374.236,232.78 L375.93,232.78 L375.93,240.172 L374.236,240.172 Z M380.62,240.298 C379.374,240.298 378.492,239.752 378.492,238.128 L378.492,234.236 L377.554,234.236 L377.554,232.78 L378.492,232.78 L378.492,230.75 L380.186,230.75 L380.186,232.78 L382.174,232.78 L382.174,234.236 L380.186,234.236 L380.186,237.862 C380.186,238.52 380.522,238.786 381.096,238.786 C381.474,238.786 381.81,238.702 382.146,238.534 L382.146,239.92 C381.726,240.158 381.264,240.298 380.62,240.298 Z M387.074,240.34 C384.932,240.34 383.28,238.786 383.28,236.504 L383.28,236.476 C383.28,234.362 384.778,232.626 386.892,232.626 C389.244,232.626 390.434,234.474 390.434,236.602 C390.434,236.756 390.42,236.91 390.406,237.078 L384.974,237.078 C385.156,238.282 386.01,238.954 387.102,238.954 C387.928,238.954 388.516,238.646 389.104,238.072 L390.098,238.954 C389.398,239.794 388.432,240.34 387.074,240.34 Z M384.96,235.958 L388.754,235.958 C388.642,234.866 387.998,234.012 386.878,234.012 C385.842,234.012 385.114,234.81 384.96,235.958 Z M390.728,241.964 L397.056,229 L398.526,229 L392.198,241.964 L390.728,241.964 Z M397.112,240.172 L401.424,230.302 L403.02,230.302 L407.332,240.172 L405.512,240.172 L404.518,237.806 L399.884,237.806 L398.876,240.172 L397.112,240.172 Z M400.514,236.28 L403.888,236.28 L402.194,232.36 L400.514,236.28 Z M408.816,242.412 L408.816,232.78 L410.51,232.78 L410.51,234.012 C411.056,233.242 411.826,232.626 413.03,232.626 C414.766,232.626 416.46,233.998 416.46,236.462 L416.46,236.49 C416.46,238.94 414.78,240.326 413.03,240.326 C411.798,240.326 411.028,239.71 410.51,239.024 L410.51,242.412 L408.816,242.412 Z M412.624,238.856 C413.786,238.856 414.738,237.946 414.738,236.49 L414.738,236.462 C414.738,235.034 413.772,234.096 412.624,234.096 C411.476,234.096 410.468,235.048 410.468,236.462 L410.468,236.49 C410.468,237.904 411.476,238.856 412.624,238.856 Z M418.21,242.412 L418.21,232.78 L419.904,232.78 L419.904,234.012 C420.45,233.242 421.22,232.626 422.424,232.626 C424.16,232.626 425.854,233.998 425.854,236.462 L425.854,236.49 C425.854,238.94 424.174,240.326 422.424,240.326 C421.192,240.326 420.422,239.71 419.904,239.024 L419.904,242.412 L418.21,242.412 Z M422.018,238.856 C423.18,238.856 424.132,237.946 424.132,236.49 L424.132,236.462 C424.132,235.034 423.166,234.096 422.018,234.096 C420.87,234.096 419.862,235.048 419.862,236.462 L419.862,236.49 C419.862,237.904 420.87,238.856 422.018,238.856 Z" id="Website/App" fill="#76787F"></path>
        <path d="M574.088,240.36 C572.59,240.36 571.176,239.842 570,238.792 L571.036,237.56 C571.974,238.372 572.926,238.834 574.13,238.834 C575.194,238.834 575.866,238.33 575.866,237.602 L575.866,237.574 C575.866,236.874 575.474,236.496 573.654,236.076 C571.568,235.572 570.392,234.956 570.392,233.15 L570.392,233.122 C570.392,231.442 571.792,230.28 573.738,230.28 C575.166,230.28 576.3,230.714 577.294,231.512 L576.37,232.814 C575.488,232.156 574.606,231.806 573.71,231.806 C572.702,231.806 572.114,232.324 572.114,232.968 L572.114,232.996 C572.114,233.752 572.562,234.088 574.452,234.536 C576.524,235.04 577.588,235.782 577.588,237.406 L577.588,237.434 C577.588,239.268 576.146,240.36 574.088,240.36 Z M582.908,240.36 C581.41,240.36 579.996,239.842 578.82,238.792 L579.856,237.56 C580.794,238.372 581.746,238.834 582.95,238.834 C584.014,238.834 584.686,238.33 584.686,237.602 L584.686,237.574 C584.686,236.874 584.294,236.496 582.474,236.076 C580.388,235.572 579.212,234.956 579.212,233.15 L579.212,233.122 C579.212,231.442 580.612,230.28 582.558,230.28 C583.986,230.28 585.12,230.714 586.114,231.512 L585.19,232.814 C584.308,232.156 583.426,231.806 582.53,231.806 C581.522,231.806 580.934,232.324 580.934,232.968 L580.934,232.996 C580.934,233.752 581.382,234.088 583.272,234.536 C585.344,235.04 586.408,235.782 586.408,237.406 L586.408,237.434 C586.408,239.268 584.966,240.36 582.908,240.36 Z M593.114,240.388 C590.104,240.388 588.004,238.106 588.004,235.348 L588.004,235.32 C588.004,232.562 590.132,230.252 593.142,230.252 C596.152,230.252 598.252,232.534 598.252,235.292 L598.252,235.32 C598.252,238.078 596.124,240.388 593.114,240.388 Z M593.142,238.792 C595.088,238.792 596.446,237.252 596.446,235.348 L596.446,235.32 C596.446,233.416 595.06,231.834 593.114,231.834 C591.168,231.834 589.81,233.388 589.81,235.292 L589.81,235.32 C589.81,237.224 591.196,238.792 593.142,238.792 Z M607.198,240.29 L603.782,230.42 L605.644,230.42 L607.982,237.686 L610.39,230.392 L611.846,230.392 L614.254,237.686 L616.592,230.42 L618.398,230.42 L614.996,240.29 L613.498,240.29 L611.09,233.248 L608.682,240.29 L607.198,240.29 Z M622.444,240.388 C620.302,240.388 618.65,238.834 618.65,236.552 L618.65,236.524 C618.65,234.41 620.148,232.674 622.262,232.674 C624.614,232.674 625.804,234.522 625.804,236.65 C625.804,236.804 625.79,236.958 625.776,237.126 L620.344,237.126 C620.526,238.33 621.38,239.002 622.472,239.002 C623.298,239.002 623.886,238.694 624.474,238.12 L625.468,239.002 C624.768,239.842 623.802,240.388 622.444,240.388 Z M620.33,236.006 L624.124,236.006 C624.012,234.914 623.368,234.06 622.248,234.06 C621.212,234.06 620.484,234.858 620.33,236.006 Z M631.726,240.374 C630.494,240.374 629.724,239.758 629.206,239.072 L629.206,240.22 L627.512,240.22 L627.512,230 L629.206,230 L629.206,234.06 C629.752,233.29 630.522,232.674 631.726,232.674 C633.462,232.674 635.156,234.046 635.156,236.51 L635.156,236.538 C635.156,238.988 633.476,240.374 631.726,240.374 Z M631.32,238.904 C632.482,238.904 633.434,237.994 633.434,236.538 L633.434,236.51 C633.434,235.082 632.468,234.144 631.32,234.144 C630.172,234.144 629.164,235.096 629.164,236.51 L629.164,236.538 C629.164,237.952 630.172,238.904 631.32,238.904 Z M639.44,240.36 C638.39,240.36 637.228,239.982 636.304,239.254 L637.06,238.106 C637.872,238.708 638.726,239.016 639.482,239.016 C640.21,239.016 640.63,238.708 640.63,238.218 L640.63,238.19 C640.63,237.616 639.846,237.42 638.978,237.154 C637.886,236.846 636.668,236.398 636.668,234.984 L636.668,234.956 C636.668,233.556 637.83,232.702 639.3,232.702 C640.224,232.702 641.232,233.024 642.016,233.542 L641.344,234.746 C640.63,234.312 639.874,234.046 639.258,234.046 C638.6,234.046 638.222,234.354 638.222,234.774 L638.222,234.802 C638.222,235.348 639.02,235.572 639.888,235.852 C640.966,236.188 642.184,236.678 642.184,238.008 L642.184,238.036 C642.184,239.59 640.98,240.36 639.44,240.36 Z M643.948,231.694 L643.948,230.084 L645.768,230.084 L645.768,231.694 L643.948,231.694 Z M644.018,240.22 L644.018,232.828 L645.712,232.828 L645.712,240.22 L644.018,240.22 Z M650.402,240.346 C649.156,240.346 648.274,239.8 648.274,238.176 L648.274,234.284 L647.336,234.284 L647.336,232.828 L648.274,232.828 L648.274,230.798 L649.968,230.798 L649.968,232.828 L651.956,232.828 L651.956,234.284 L649.968,234.284 L649.968,237.91 C649.968,238.568 650.304,238.834 650.878,238.834 C651.256,238.834 651.592,238.75 651.928,238.582 L651.928,239.968 C651.508,240.206 651.046,240.346 650.402,240.346 Z M656.856,240.388 C654.714,240.388 653.062,238.834 653.062,236.552 L653.062,236.524 C653.062,234.41 654.56,232.674 656.674,232.674 C659.026,232.674 660.216,234.522 660.216,236.65 C660.216,236.804 660.202,236.958 660.188,237.126 L654.756,237.126 C654.938,238.33 655.792,239.002 656.884,239.002 C657.71,239.002 658.298,238.694 658.886,238.12 L659.88,239.002 C659.18,239.842 658.214,240.388 656.856,240.388 Z M654.742,236.006 L658.536,236.006 C658.424,234.914 657.78,234.06 656.66,234.06 C655.624,234.06 654.896,234.858 654.742,236.006 Z" id="SSO-Website" fill="#76787F"></path>
        <path d="M709.617,240.172 L709.617,230.372 L711.339,230.372 L711.339,240.172 L709.617,240.172 Z M716.813,240.326 C715.077,240.326 713.383,238.94 713.383,236.49 L713.383,236.462 C713.383,234.012 715.049,232.626 716.813,232.626 C718.031,232.626 718.801,233.228 719.333,233.928 L719.333,229.952 L721.027,229.952 L721.027,240.172 L719.333,240.172 L719.333,238.94 C718.787,239.71 718.017,240.326 716.813,240.326 Z M717.219,238.856 C718.353,238.856 719.361,237.904 719.361,236.49 L719.361,236.462 C719.361,235.034 718.353,234.096 717.219,234.096 C716.057,234.096 715.091,234.992 715.091,236.462 L715.091,236.49 C715.091,237.918 716.071,238.856 717.219,238.856 Z M726.543,240.34 C724.401,240.34 722.749,238.786 722.749,236.504 L722.749,236.476 C722.749,234.362 724.247,232.626 726.361,232.626 C728.713,232.626 729.903,234.474 729.903,236.602 C729.903,236.756 729.889,236.91 729.875,237.078 L724.443,237.078 C724.625,238.282 725.479,238.954 726.571,238.954 C727.397,238.954 727.985,238.646 728.573,238.072 L729.567,238.954 C728.867,239.794 727.901,240.34 726.543,240.34 Z M724.429,235.958 L728.223,235.958 C728.111,234.866 727.467,234.012 726.347,234.012 C725.311,234.012 724.583,234.81 724.429,235.958 Z M731.611,240.172 L731.611,232.78 L733.305,232.78 L733.305,233.914 C733.781,233.228 734.467,232.626 735.615,232.626 C737.281,232.626 738.247,233.746 738.247,235.454 L738.247,240.172 L736.553,240.172 L736.553,235.972 C736.553,234.824 735.979,234.166 734.971,234.166 C733.991,234.166 733.305,234.852 733.305,236 L733.305,240.172 L731.611,240.172 Z M742.769,240.298 C741.523,240.298 740.641,239.752 740.641,238.128 L740.641,234.236 L739.703,234.236 L739.703,232.78 L740.641,232.78 L740.641,230.75 L742.335,230.75 L742.335,232.78 L744.323,232.78 L744.323,234.236 L742.335,234.236 L742.335,237.862 C742.335,238.52 742.671,238.786 743.245,238.786 C743.623,238.786 743.959,238.702 744.295,238.534 L744.295,239.92 C743.875,240.158 743.413,240.298 742.769,240.298 Z M746.073,231.646 L746.073,230.036 L747.893,230.036 L747.893,231.646 L746.073,231.646 Z M746.143,240.172 L746.143,232.78 L747.837,232.78 L747.837,240.172 L746.143,240.172 Z M752.527,240.298 C751.281,240.298 750.399,239.752 750.399,238.128 L750.399,234.236 L749.461,234.236 L749.461,232.78 L750.399,232.78 L750.399,230.75 L752.093,230.75 L752.093,232.78 L754.081,232.78 L754.081,234.236 L752.093,234.236 L752.093,237.862 C752.093,238.52 752.429,238.786 753.003,238.786 C753.381,238.786 753.717,238.702 754.053,238.534 L754.053,239.92 C753.633,240.158 753.171,240.298 752.527,240.298 Z M759.009,238.268 L760.927,232.78 L762.691,232.78 L759.751,240.382 C759.163,241.894 758.505,242.454 757.315,242.454 C756.615,242.454 756.083,242.286 755.565,242.006 L756.139,240.746 C756.447,240.914 756.783,241.026 757.133,241.026 C757.609,241.026 757.903,240.816 758.183,240.186 L755.103,232.78 L756.923,232.78 L759.009,238.268 Z M768.543,240.172 L768.543,230.372 L772.407,230.372 C774.703,230.372 776.131,231.674 776.131,233.648 L776.131,233.676 C776.131,235.874 774.367,237.022 772.211,237.022 L770.265,237.022 L770.265,240.172 L768.543,240.172 Z M770.265,235.468 L772.267,235.468 C773.569,235.468 774.381,234.74 774.381,233.718 L774.381,233.69 C774.381,232.542 773.555,231.94 772.267,231.94 L770.265,231.94 L770.265,235.468 Z M777.699,240.172 L777.699,232.78 L779.393,232.78 L779.393,234.446 C779.855,233.34 780.709,232.584 782.011,232.64 L782.011,234.432 L781.913,234.432 C780.429,234.432 779.393,235.398 779.393,237.358 L779.393,240.172 L777.699,240.172 Z M786.743,240.34 C784.489,240.34 782.823,238.618 782.823,236.518 L782.823,236.49 C782.823,234.376 784.503,232.626 786.771,232.626 C789.039,232.626 790.705,234.348 790.705,236.462 L790.705,236.49 C790.705,238.59 789.025,240.34 786.743,240.34 Z M786.771,238.856 C788.143,238.856 789.011,237.792 789.011,236.518 L789.011,236.49 C789.011,235.188 788.073,234.11 786.743,234.11 C785.385,234.11 784.517,235.174 784.517,236.462 L784.517,236.49 C784.517,237.778 785.455,238.856 786.771,238.856 Z M794.345,240.228 L791.307,232.78 L793.127,232.78 L795.115,238.212 L797.117,232.78 L798.895,232.78 L795.871,240.228 L794.345,240.228 Z M800.365,231.646 L800.365,230.036 L802.185,230.036 L802.185,231.646 L800.365,231.646 Z M800.435,240.172 L800.435,232.78 L802.129,232.78 L802.129,240.172 L800.435,240.172 Z M807.393,240.326 C805.657,240.326 803.963,238.94 803.963,236.49 L803.963,236.462 C803.963,234.012 805.629,232.626 807.393,232.626 C808.611,232.626 809.381,233.228 809.913,233.928 L809.913,229.952 L811.607,229.952 L811.607,240.172 L809.913,240.172 L809.913,238.94 C809.367,239.71 808.597,240.326 807.393,240.326 Z M807.799,238.856 C808.933,238.856 809.941,237.904 809.941,236.49 L809.941,236.462 C809.941,235.034 808.933,234.096 807.799,234.096 C806.637,234.096 805.671,234.992 805.671,236.462 L805.671,236.49 C805.671,237.918 806.651,238.856 807.799,238.856 Z M817.123,240.34 C814.981,240.34 813.329,238.786 813.329,236.504 L813.329,236.476 C813.329,234.362 814.827,232.626 816.941,232.626 C819.293,232.626 820.483,234.474 820.483,236.602 C820.483,236.756 820.469,236.91 820.455,237.078 L815.023,237.078 C815.205,238.282 816.059,238.954 817.151,238.954 C817.977,238.954 818.565,238.646 819.153,238.072 L820.147,238.954 C819.447,239.794 818.481,240.34 817.123,240.34 Z M815.009,235.958 L818.803,235.958 C818.691,234.866 818.047,234.012 816.927,234.012 C815.891,234.012 815.163,234.81 815.009,235.958 Z M822.191,240.172 L822.191,232.78 L823.885,232.78 L823.885,234.446 C824.347,233.34 825.201,232.584 826.503,232.64 L826.503,234.432 L826.405,234.432 C824.921,234.432 823.885,235.398 823.885,237.358 L823.885,240.172 L822.191,240.172 Z M825.509,241.964 L831.837,229 L833.307,229 L826.979,241.964 L825.509,241.964 Z M694,256.172 L698.312,246.302 L699.908,246.302 L704.22,256.172 L702.4,256.172 L701.406,253.806 L696.772,253.806 L695.764,256.172 L694,256.172 Z M697.402,252.28 L700.776,252.28 L699.082,248.36 L697.402,252.28 Z M708.112,256.326 C706.446,256.326 705.48,255.206 705.48,253.484 L705.48,248.78 L707.174,248.78 L707.174,252.98 C707.174,254.128 707.748,254.772 708.756,254.772 C709.736,254.772 710.422,254.1 710.422,252.952 L710.422,248.78 L712.13,248.78 L712.13,256.172 L710.422,256.172 L710.422,255.024 C709.946,255.724 709.26,256.326 708.112,256.326 Z M716.722,256.298 C715.476,256.298 714.594,255.752 714.594,254.128 L714.594,250.236 L713.656,250.236 L713.656,248.78 L714.594,248.78 L714.594,246.75 L716.288,246.75 L716.288,248.78 L718.276,248.78 L718.276,250.236 L716.288,250.236 L716.288,253.862 C716.288,254.52 716.624,254.786 717.198,254.786 C717.576,254.786 717.912,254.702 718.248,254.534 L718.248,255.92 C717.828,256.158 717.366,256.298 716.722,256.298 Z M719.998,256.172 L719.998,245.952 L721.692,245.952 L721.692,249.914 C722.168,249.228 722.854,248.626 724.002,248.626 C725.668,248.626 726.634,249.746 726.634,251.454 L726.634,256.172 L724.94,256.172 L724.94,251.972 C724.94,250.824 724.366,250.166 723.358,250.166 C722.378,250.166 721.692,250.852 721.692,252 L721.692,256.172 L719.998,256.172 Z M732.066,256.34 C729.924,256.34 728.272,254.786 728.272,252.504 L728.272,252.476 C728.272,250.362 729.77,248.626 731.884,248.626 C734.236,248.626 735.426,250.474 735.426,252.602 C735.426,252.756 735.412,252.91 735.398,253.078 L729.966,253.078 C730.148,254.282 731.002,254.954 732.094,254.954 C732.92,254.954 733.508,254.646 734.096,254.072 L735.09,254.954 C734.39,255.794 733.424,256.34 732.066,256.34 Z M729.952,251.958 L733.746,251.958 C733.634,250.866 732.99,250.012 731.87,250.012 C730.834,250.012 730.106,250.81 729.952,251.958 Z M737.134,256.172 L737.134,248.78 L738.828,248.78 L738.828,249.914 C739.304,249.228 739.99,248.626 741.138,248.626 C742.804,248.626 743.77,249.746 743.77,251.454 L743.77,256.172 L742.076,256.172 L742.076,251.972 C742.076,250.824 741.502,250.166 740.494,250.166 C739.514,250.166 738.828,250.852 738.828,252 L738.828,256.172 L737.134,256.172 Z M748.292,256.298 C747.046,256.298 746.164,255.752 746.164,254.128 L746.164,250.236 L745.226,250.236 L745.226,248.78 L746.164,248.78 L746.164,246.75 L747.858,246.75 L747.858,248.78 L749.846,248.78 L749.846,250.236 L747.858,250.236 L747.858,253.862 C747.858,254.52 748.194,254.786 748.768,254.786 C749.146,254.786 749.482,254.702 749.818,254.534 L749.818,255.92 C749.398,256.158 748.936,256.298 748.292,256.298 Z M751.596,247.646 L751.596,246.036 L753.416,246.036 L753.416,247.646 L751.596,247.646 Z M751.666,256.172 L751.666,248.78 L753.36,248.78 L753.36,256.172 L751.666,256.172 Z M758.988,256.34 C756.79,256.34 755.166,254.618 755.166,252.518 L755.166,252.49 C755.166,250.39 756.79,248.626 759.016,248.626 C760.402,248.626 761.27,249.144 761.97,249.9 L760.906,251.034 C760.388,250.488 759.842,250.11 759.002,250.11 C757.77,250.11 756.86,251.174 756.86,252.462 L756.86,252.49 C756.86,253.806 757.77,254.856 759.072,254.856 C759.87,254.856 760.458,254.492 760.99,253.946 L762.012,254.954 C761.284,255.766 760.43,256.34 758.988,256.34 Z M765.694,256.326 C764.308,256.326 763.076,255.528 763.076,254.044 L763.076,254.016 C763.076,252.42 764.322,251.636 766.128,251.636 C766.954,251.636 767.542,251.762 768.116,251.944 L768.116,251.762 C768.116,250.712 767.472,250.152 766.282,250.152 C765.456,250.152 764.84,250.334 764.168,250.614 L763.72,249.284 C764.532,248.92 765.33,248.682 766.506,248.682 C767.612,248.682 768.438,248.976 768.956,249.508 C769.502,250.04 769.754,250.824 769.754,251.79 L769.754,256.172 L768.102,256.172 L768.102,255.248 C767.598,255.85 766.828,256.326 765.694,256.326 Z M766.17,255.094 C767.29,255.094 768.144,254.45 768.144,253.512 L768.144,253.008 C767.71,252.84 767.136,252.714 766.464,252.714 C765.372,252.714 764.728,253.176 764.728,253.946 L764.728,253.974 C764.728,254.688 765.358,255.094 766.17,255.094 Z M774.192,256.298 C772.946,256.298 772.064,255.752 772.064,254.128 L772.064,250.236 L771.126,250.236 L771.126,248.78 L772.064,248.78 L772.064,246.75 L773.758,246.75 L773.758,248.78 L775.746,248.78 L775.746,250.236 L773.758,250.236 L773.758,253.862 C773.758,254.52 774.094,254.786 774.668,254.786 C775.046,254.786 775.382,254.702 775.718,254.534 L775.718,255.92 C775.298,256.158 774.836,256.298 774.192,256.298 Z M777.496,247.646 L777.496,246.036 L779.316,246.036 L779.316,247.646 L777.496,247.646 Z M777.566,256.172 L777.566,248.78 L779.26,248.78 L779.26,256.172 L777.566,256.172 Z M784.986,256.34 C782.732,256.34 781.066,254.618 781.066,252.518 L781.066,252.49 C781.066,250.376 782.746,248.626 785.014,248.626 C787.282,248.626 788.948,250.348 788.948,252.462 L788.948,252.49 C788.948,254.59 787.268,256.34 784.986,256.34 Z M785.014,254.856 C786.386,254.856 787.254,253.792 787.254,252.518 L787.254,252.49 C787.254,251.188 786.316,250.11 784.986,250.11 C783.628,250.11 782.76,251.174 782.76,252.462 L782.76,252.49 C782.76,253.778 783.698,254.856 785.014,254.856 Z M790.67,256.172 L790.67,248.78 L792.364,248.78 L792.364,249.914 C792.84,249.228 793.526,248.626 794.674,248.626 C796.34,248.626 797.306,249.746 797.306,251.454 L797.306,256.172 L795.612,256.172 L795.612,251.972 C795.612,250.824 795.038,250.166 794.03,250.166 C793.05,250.166 792.364,250.852 792.364,252 L792.364,256.172 L790.67,256.172 Z M807.176,256.312 C805.678,256.312 804.264,255.794 803.088,254.744 L804.124,253.512 C805.062,254.324 806.014,254.786 807.218,254.786 C808.282,254.786 808.954,254.282 808.954,253.554 L808.954,253.526 C808.954,252.826 808.562,252.448 806.742,252.028 C804.656,251.524 803.48,250.908 803.48,249.102 L803.48,249.074 C803.48,247.394 804.88,246.232 806.826,246.232 C808.254,246.232 809.388,246.666 810.382,247.464 L809.458,248.766 C808.576,248.108 807.694,247.758 806.798,247.758 C805.79,247.758 805.202,248.276 805.202,248.92 L805.202,248.948 C805.202,249.704 805.65,250.04 807.54,250.488 C809.612,250.992 810.676,251.734 810.676,253.358 L810.676,253.386 C810.676,255.22 809.234,256.312 807.176,256.312 Z M815.898,256.34 C813.756,256.34 812.104,254.786 812.104,252.504 L812.104,252.476 C812.104,250.362 813.602,248.626 815.716,248.626 C818.068,248.626 819.258,250.474 819.258,252.602 C819.258,252.756 819.244,252.91 819.23,253.078 L813.798,253.078 C813.98,254.282 814.834,254.954 815.926,254.954 C816.752,254.954 817.34,254.646 817.928,254.072 L818.922,254.954 C818.222,255.794 817.256,256.34 815.898,256.34 Z M813.784,251.958 L817.578,251.958 C817.466,250.866 816.822,250.012 815.702,250.012 C814.666,250.012 813.938,250.81 813.784,251.958 Z M820.966,256.172 L820.966,248.78 L822.66,248.78 L822.66,250.446 C823.122,249.34 823.976,248.584 825.278,248.64 L825.278,250.432 L825.18,250.432 C823.696,250.432 822.66,251.398 822.66,253.358 L822.66,256.172 L820.966,256.172 Z M829.086,256.228 L826.048,248.78 L827.868,248.78 L829.856,254.212 L831.858,248.78 L833.636,248.78 L830.612,256.228 L829.086,256.228 Z M838.046,256.34 C835.904,256.34 834.252,254.786 834.252,252.504 L834.252,252.476 C834.252,250.362 835.75,248.626 837.864,248.626 C840.216,248.626 841.406,250.474 841.406,252.602 C841.406,252.756 841.392,252.91 841.378,253.078 L835.946,253.078 C836.128,254.282 836.982,254.954 838.074,254.954 C838.9,254.954 839.488,254.646 840.076,254.072 L841.07,254.954 C840.37,255.794 839.404,256.34 838.046,256.34 Z M835.932,251.958 L839.726,251.958 C839.614,250.866 838.97,250.012 837.85,250.012 C836.814,250.012 836.086,250.81 835.932,251.958 Z M843.114,256.172 L843.114,248.78 L844.808,248.78 L844.808,250.446 C845.27,249.34 846.124,248.584 847.426,248.64 L847.426,250.432 L847.328,250.432 C845.844,250.432 844.808,251.398 844.808,253.358 L844.808,256.172 L843.114,256.172 Z" id="Identity-Provider/-A" fill="#76787F"></path>
        <path d="M337.416,374.242 L334,364.372 L335.862,364.372 L338.2,371.638 L340.608,364.344 L342.064,364.344 L344.472,371.638 L346.81,364.372 L348.616,364.372 L345.214,374.242 L343.716,374.242 L341.308,367.2 L338.9,374.242 L337.416,374.242 Z M352.662,374.34 C350.52,374.34 348.868,372.786 348.868,370.504 L348.868,370.476 C348.868,368.362 350.366,366.626 352.48,366.626 C354.832,366.626 356.022,368.474 356.022,370.602 C356.022,370.756 356.008,370.91 355.994,371.078 L350.562,371.078 C350.744,372.282 351.598,372.954 352.69,372.954 C353.516,372.954 354.104,372.646 354.692,372.072 L355.686,372.954 C354.986,373.794 354.02,374.34 352.662,374.34 Z M350.548,369.958 L354.342,369.958 C354.23,368.866 353.586,368.012 352.466,368.012 C351.43,368.012 350.702,368.81 350.548,369.958 Z M361.944,374.326 C360.712,374.326 359.942,373.71 359.424,373.024 L359.424,374.172 L357.73,374.172 L357.73,363.952 L359.424,363.952 L359.424,368.012 C359.97,367.242 360.74,366.626 361.944,366.626 C363.68,366.626 365.374,367.998 365.374,370.462 L365.374,370.49 C365.374,372.94 363.694,374.326 361.944,374.326 Z M361.538,372.856 C362.7,372.856 363.652,371.946 363.652,370.49 L363.652,370.462 C363.652,369.034 362.686,368.096 361.538,368.096 C360.39,368.096 359.382,369.048 359.382,370.462 L359.382,370.49 C359.382,371.904 360.39,372.856 361.538,372.856 Z M369.658,374.312 C368.608,374.312 367.446,373.934 366.522,373.206 L367.278,372.058 C368.09,372.66 368.944,372.968 369.7,372.968 C370.428,372.968 370.848,372.66 370.848,372.17 L370.848,372.142 C370.848,371.568 370.064,371.372 369.196,371.106 C368.104,370.798 366.886,370.35 366.886,368.936 L366.886,368.908 C366.886,367.508 368.048,366.654 369.518,366.654 C370.442,366.654 371.45,366.976 372.234,367.494 L371.562,368.698 C370.848,368.264 370.092,367.998 369.476,367.998 C368.818,367.998 368.44,368.306 368.44,368.726 L368.44,368.754 C368.44,369.3 369.238,369.524 370.106,369.804 C371.184,370.14 372.402,370.63 372.402,371.96 L372.402,371.988 C372.402,373.542 371.198,374.312 369.658,374.312 Z M374.166,365.646 L374.166,364.036 L375.986,364.036 L375.986,365.646 L374.166,365.646 Z M374.236,374.172 L374.236,366.78 L375.93,366.78 L375.93,374.172 L374.236,374.172 Z M380.62,374.298 C379.374,374.298 378.492,373.752 378.492,372.128 L378.492,368.236 L377.554,368.236 L377.554,366.78 L378.492,366.78 L378.492,364.75 L380.186,364.75 L380.186,366.78 L382.174,366.78 L382.174,368.236 L380.186,368.236 L380.186,371.862 C380.186,372.52 380.522,372.786 381.096,372.786 C381.474,372.786 381.81,372.702 382.146,372.534 L382.146,373.92 C381.726,374.158 381.264,374.298 380.62,374.298 Z M387.074,374.34 C384.932,374.34 383.28,372.786 383.28,370.504 L383.28,370.476 C383.28,368.362 384.778,366.626 386.892,366.626 C389.244,366.626 390.434,368.474 390.434,370.602 C390.434,370.756 390.42,370.91 390.406,371.078 L384.974,371.078 C385.156,372.282 386.01,372.954 387.102,372.954 C387.928,372.954 388.516,372.646 389.104,372.072 L390.098,372.954 C389.398,373.794 388.432,374.34 387.074,374.34 Z M384.96,369.958 L388.754,369.958 C388.642,368.866 387.998,368.012 386.878,368.012 C385.842,368.012 385.114,368.81 384.96,369.958 Z M390.728,375.964 L397.056,363 L398.526,363 L392.198,375.964 L390.728,375.964 Z M397.112,374.172 L401.424,364.302 L403.02,364.302 L407.332,374.172 L405.512,374.172 L404.518,371.806 L399.884,371.806 L398.876,374.172 L397.112,374.172 Z M400.514,370.28 L403.888,370.28 L402.194,366.36 L400.514,370.28 Z M408.816,376.412 L408.816,366.78 L410.51,366.78 L410.51,368.012 C411.056,367.242 411.826,366.626 413.03,366.626 C414.766,366.626 416.46,367.998 416.46,370.462 L416.46,370.49 C416.46,372.94 414.78,374.326 413.03,374.326 C411.798,374.326 411.028,373.71 410.51,373.024 L410.51,376.412 L408.816,376.412 Z M412.624,372.856 C413.786,372.856 414.738,371.946 414.738,370.49 L414.738,370.462 C414.738,369.034 413.772,368.096 412.624,368.096 C411.476,368.096 410.468,369.048 410.468,370.462 L410.468,370.49 C410.468,371.904 411.476,372.856 412.624,372.856 Z M418.21,376.412 L418.21,366.78 L419.904,366.78 L419.904,368.012 C420.45,367.242 421.22,366.626 422.424,366.626 C424.16,366.626 425.854,367.998 425.854,370.462 L425.854,370.49 C425.854,372.94 424.174,374.326 422.424,374.326 C421.192,374.326 420.422,373.71 419.904,373.024 L419.904,376.412 L418.21,376.412 Z M422.018,372.856 C423.18,372.856 424.132,371.946 424.132,370.49 L424.132,370.462 C424.132,369.034 423.166,368.096 422.018,368.096 C420.87,368.096 419.862,369.048 419.862,370.462 L419.862,370.49 C419.862,371.904 420.87,372.856 422.018,372.856 Z" id="Website/App" fill="#76787F"></path>
    </g>
</svg>