<svg xmlns="http://www.w3.org/2000/svg" width="542.7994" height="117.1491" viewBox="0 0 542.7994 117.1491"><defs><style>.cls-1{fill:#07a4ea;fill-rule:evenodd;}</style></defs><g id="Layer_2" data-name="Layer 2"><g id="Vrstva_1" data-name="Vrstva 1"><path class="cls-1" d="M12.216,35.6373h4.9978V4.3405H29.4293V0H0V4.3405H12.216V35.6373Zm19.199,0h4.9977V19.989H54.8882V35.6373h4.9969V0H54.8882V15.6474H36.4127V0H31.415V35.6373Zm31.0119,0H83.9815V31.2959H67.4247V19.8379H80.196V15.4963H67.4247V4.3405H83.1232V0H62.4269Z"/><path class="cls-1" d="M37.5241,75.2952V88.06H55.7614c-2.3078,5.6657-8.9178,9.4073-16.6461,9.4073-11.1206,0-18.4127-7.9553-18.4127-19.5835,0-11.7331,7.4142-19.6893,18.4127-19.6893,7.4841,0,14.0587,3.987,16.7166,10.177h21.21C73.9291,51.3046,58.1748,39.2576,38.9408,39.2576,16.314,39.2576,0,55.5537,0,77.8834c0,22.3461,16.611,38.5209,39.1153,38.5209,22.9939,0,38.6784-17.0657,38.6784-41.1091Zm84.4669,39.2554h22.5914L130,87.8679a23.4307,23.4307,0,0,0,11.6452-20.756c0-15.3874-11.4706-26.0006-27.26-26.0006H82.5955v73.4393h20.2482V92.0987h7.2921l11.8552,22.4519Zm-19.1473-55.5h9.18c5.63,0,8.8832,3.375,8.8832,8.0084,0,4.6165-3.2529,8.0431-8.8832,8.0431h-9.18V59.0511Zm93.5593,55.5-4.0563-11.96H166.3458l-4.0742,11.96H140.6065l28.8342-73.4393H189.2l29.4627,73.4393Zm-8.9874-27.8018-8.1137-22.7315L171.259,86.7488Zm62.6275-45.62H220.3522v73.4051h29.6909c22.1018,0,37.8387-15.3524,37.8387-36.755,0-21.4378-15.6673-36.65-37.8387-36.65Zm-.9625,54.87h-8.41V59.6633h8.41c10.8419,0,18.0627,7.2216,18.0627,18.1152,0,10.8057-7.2208,18.22-18.0627,18.22Z"/><path class="cls-1" d="M331.6275,117.1491c19.5661,0,34.5513-13.0973,37.3492-32.4013h-20.686c-2.0634,8.1482-8.4628,13.4637-16.6287,13.4637-10.3861,0-18.01-8.2358-18.01-19.5661,0-11.3658,7.6241-19.7416,18.01-19.7416,7.7462,0,14.0758,4.8967,16.6116,12.4321h20.4935c-2.9908-18.6216-17.8882-31.3335-37.14-31.3335-22.3469,0-39.0283,16.5582-39.0283,38.643,0,21.9623,16.6814,38.5037,39.0283,38.5037Zm87.3339-1.8537-4.0566-11.96H388.9042l-4.0745,11.96H363.1649l28.8339-73.44h19.7589l29.463,73.44Zm-8.9875-27.8018L401.86,64.7621l-8.0432,22.7315Zm79.5882-27.3831V41.8558H442.8056v73.44h20.4227V89.574h23.6055V71.8787H463.2283V60.1105Zm25.5043,37.6642V86.759h24.113V70.1825h-24.113V59.3588h26.8413V41.8732H494.9232v73.4222h47.8762V97.7747Z"/></g></g></svg>