<?xml version="1.0" encoding="UTF-8"?><svg id="Layer_1" xmlns="http://www.w3.org/2000/svg" viewBox="0 0 808.3125 916.75"><defs><style>.cls-1{fill:#66cff2;}.cls-1,.cls-2,.cls-3,.cls-4,.cls-5,.cls-6{stroke-width:0px;}.cls-2{fill:#f28080;}.cls-3{fill:#f7f7f7;}.cls-5{fill:#ddd;}.cls-6{fill:#eee;}</style></defs><rect class="cls-5" x="79.26749" y="745.04671" width="216" height="140.97494"/><rect class="cls-6" x="95.35084" y="726.22748" width="216" height="140.97494"/><rect class="cls-3" x="36.37463" y="123.79397" width="733.5" height="55.8125"/><rect class="cls-3" x="36.37463" y="405.66282" width="376.70241" height="64.6875"/><rect class="cls-3" x="36.37463" y="557.28291" width="376.70241" height="64.6875"/><rect class="cls-3" x="116.72584" y="709.7621" width="216" height="140.97494"/><rect class="cls-3" x="510.98193" y="709.7621" width="216" height="140.97494"/><path class="cls-4" d="m277.04199,159.7168v-16.7998h2.76074v14.42383h7.67969v2.37598h-10.44043Z"/><path class="cls-4" d="m293.2666,160.02881c-1.3125,0-2.32812-.32422-3.04785-.97217-.7207-.64795-1.08008-1.55566-1.08008-2.72363,0-1.0083.31543-1.83203.94727-2.47217.63184-.63965,1.55664-1.04004,2.77246-1.2002l4.34375-.57568v-.09619c0-1.82373-.81543-2.73584-2.44824-2.73584h-.26367c-.68848,0-1.25977.12402-1.71582.37207s-.82812.66797-1.11621,1.25977l-2.04004-1.05615c.36816-.84766.97168-1.51562,1.8125-2.00391.83984-.48779,1.85938-.73193,3.05957-.73193h.36035c1.63184,0,2.87109.41211,3.71973,1.23584.84766.82422,1.27246,2.02832,1.27246,3.6123v7.77588h-2.32812v-1.87207c-.36816.67188-.91211,1.2041-1.63281,1.59619-.71973.3916-1.53516.58789-2.44727.58789h-.16797Zm3.93555-6.09619l-3.26367.47998c-.83203.1123-1.41211.29639-1.74023.55225s-.49219.65625-.49219,1.2002.18848.97168.56445,1.28369.90723.46826,1.5957.46826h.24023c.94336,0,1.69531-.29199,2.25586-.87598.55957-.58398.83984-1.36426.83984-2.34033v-.76807Z"/><path class="cls-4" d="m303.17773,159.7168v-12.28809h2.32812v2.32812c.30371-.75195.73145-1.35205,1.28418-1.7998.55176-.44775,1.32324-.67236,2.31543-.67236h1.24805v2.44824h-1.22363c-.57617,0-1.11621.12793-1.62012.38379-.50391.25635-.91211.66016-1.22363,1.21191-.3125.55225-.46875,1.28418-.46875,2.19629v6.19189h-2.63965Z"/><path class="cls-4" d="m317.19434,164.85303c-1.21582,0-2.21973-.19238-3.01172-.57617-.79199-.38428-1.41211-.95215-1.86035-1.7041l1.89648-1.41602c.31934.52783.71582.90771,1.1875,1.14014.47168.23145,1.09961.34814,1.88379.34814h.3125c2.04785,0,3.07227-1.16064,3.07227-3.47998v-1.27246c-.83203,1.16846-2.06445,1.75244-3.69629,1.75244h-.16797c-1.04004,0-1.95215-.24805-2.73633-.74414-.78418-.49561-1.3916-1.19189-1.82422-2.08789-.43164-.896-.64746-1.93604-.64746-3.12012v-.64795c0-1.18408.21582-2.22363.64746-3.12012.43262-.896,1.04004-1.5918,1.82422-2.08789s1.69629-.74414,2.73633-.74414h.16797c1.8877,0,3.23145.72021,4.03223,2.16016v-1.82422h2.32812v11.66406c0,1.83984-.48828,3.25977-1.46484,4.26025-.97559.99951-2.36816,1.5-4.17578,1.5h-.50391Zm.19238-7.46436h.21582c.94336,0,1.7002-.33984,2.26758-1.02002.56836-.67969.85254-1.57959.85254-2.69971v-.6001c0-1.13574-.28418-2.03613-.85254-2.7002-.56738-.66357-1.32422-.99609-2.26758-.99609h-.21582c-.97656,0-1.74414.32422-2.30469.97217-.55957.64795-.83984,1.54004-.83984,2.67627v.67188c0,1.13623.28027,2.03613.83984,2.69971.56055.66455,1.32812.99609,2.30469.99609Z"/><path class="cls-4" d="m331.73828,160.02881c-1.79199,0-3.1875-.52393-4.1875-1.57178s-1.5-2.54004-1.5-4.47607v-.79199c0-1.90381.51172-3.396,1.53613-4.47607,1.02344-1.08008,2.40723-1.62012,4.15137-1.62012h.2168c1.66309,0,2.97949.52002,3.94727,1.56006s1.45215,2.43994,1.45215,4.2002v1.46387h-8.71191c.04785,1.19971.33984,2.09619.87598,2.68799s1.27637.8877,2.21973.8877h.36035c.71973,0,1.31641-.12354,1.78809-.37158s.85156-.62012,1.13965-1.11621l1.91992,1.24805c-.43164.73633-1.06348,1.31641-1.89551,1.73975-.83203.42383-1.81641.63623-2.95215.63623h-.36035Zm-3.07129-7.56006h6.12012v-.16797c0-.9917-.25195-1.74805-.75684-2.26807-.50391-.51953-1.2041-.77979-2.09961-.77979h-.19238c-.87988,0-1.58789.27197-2.12402.81592s-.85156,1.34375-.94727,2.3999Z"/><path class="cls-4" d="m346.56934,159.7168v-16.7998h2.76074v14.42383h7.67969v2.37598h-10.44043Z"/><path class="cls-4" d="m362.79395,160.02881c-1.3125,0-2.32812-.32422-3.04785-.97217-.7207-.64795-1.08008-1.55566-1.08008-2.72363,0-1.0083.31543-1.83203.94727-2.47217.63184-.63965,1.55664-1.04004,2.77246-1.2002l4.34375-.57568v-.09619c0-1.82373-.81543-2.73584-2.44824-2.73584h-.26367c-.68848,0-1.25977.12402-1.71582.37207s-.82812.66797-1.11621,1.25977l-2.04004-1.05615c.36816-.84766.97168-1.51562,1.8125-2.00391.83984-.48779,1.85938-.73193,3.05957-.73193h.36035c1.63184,0,2.87109.41211,3.71973,1.23584.84766.82422,1.27246,2.02832,1.27246,3.6123v7.77588h-2.32812v-1.87207c-.36816.67188-.91211,1.2041-1.63281,1.59619-.71973.3916-1.53516.58789-2.44727.58789h-.16797Zm3.93555-6.09619l-3.26367.47998c-.83203.1123-1.41211.29639-1.74023.55225s-.49219.65625-.49219,1.2002.18848.97168.56445,1.28369.90723.46826,1.5957.46826h.24023c.94336,0,1.69531-.29199,2.25586-.87598.55957-.58398.83984-1.36426.83984-2.34033v-.76807Z"/><path class="cls-4" d="m372.70605,159.7168v-12.28809h2.32812v1.84814c.38379-.67188.9082-1.20361,1.57227-1.59619.66309-.3916,1.45117-.58789,2.36328-.58789h.24023c1.39258,0,2.50391.43213,3.33594,1.2959.83203.86426,1.24805,2.1123,1.24805,3.74414v7.58398h-2.63965v-7.22412c0-1.00781-.21582-1.77979-.64844-2.31592-.43164-.53564-1.08789-.8042-1.96777-.8042h-.16797c-.5127,0-1,.12842-1.46387.38428-.46484.25586-.83984.64795-1.12793,1.17578-.28809.52832-.43262,1.2002-.43262,2.01611v6.76807h-2.63965Z"/><path class="cls-4" d="m392.0498,164.85303c-1.21582,0-2.21973-.19238-3.01172-.57617-.79199-.38428-1.41211-.95215-1.86035-1.7041l1.89648-1.41602c.31934.52783.71582.90771,1.1875,1.14014.47168.23145,1.09961.34814,1.88379.34814h.3125c2.04785,0,3.07227-1.16064,3.07227-3.47998v-1.27246c-.83203,1.16846-2.06445,1.75244-3.69629,1.75244h-.16797c-1.04004,0-1.95215-.24805-2.73633-.74414-.78418-.49561-1.3916-1.19189-1.82422-2.08789-.43164-.896-.64746-1.93604-.64746-3.12012v-.64795c0-1.18408.21582-2.22363.64746-3.12012.43262-.896,1.04004-1.5918,1.82422-2.08789s1.69629-.74414,2.73633-.74414h.16797c1.8877,0,3.23145.72021,4.03223,2.16016v-1.82422h2.32812v11.66406c0,1.83984-.48828,3.25977-1.46484,4.26025-.97559.99951-2.36816,1.5-4.17578,1.5h-.50391Zm.19238-7.46436h.21582c.94336,0,1.7002-.33984,2.26758-1.02002.56836-.67969.85254-1.57959.85254-2.69971v-.6001c0-1.13574-.28418-2.03613-.85254-2.7002-.56738-.66357-1.32422-.99609-2.26758-.99609h-.21582c-.97656,0-1.74414.32422-2.30469.97217-.55957.64795-.83984,1.54004-.83984,2.67627v.67188c0,1.13623.28027,2.03613.83984,2.69971.56055.66455,1.32812.99609,2.30469.99609Z"/><path class="cls-4" d="m405.96973,160.02881c-1.36035,0-2.44434-.42773-3.25195-1.28418-.80762-.85547-1.21191-2.09961-1.21191-3.73193v-7.58398h2.63965v7.2002c0,1.02393.2041,1.8042.6123,2.33984.4082.53613,1.02832.8042,1.86035.8042h.16797c.49512,0,.96387-.12793,1.40332-.38428.44043-.25586.80078-.65186,1.08008-1.18799.28027-.53564.41992-1.20361.41992-2.00391v-6.76807h2.64062v12.28809h-2.35254v-1.82422c-.36816.65625-.87207,1.17627-1.51172,1.56006-.63965.38428-1.40039.57617-2.28027.57617h-.21582Z"/><path class="cls-4" d="m419.16992,160.02881c-1.3125,0-2.32812-.32422-3.04785-.97217-.7207-.64795-1.08008-1.55566-1.08008-2.72363,0-1.0083.31543-1.83203.94727-2.47217.63184-.63965,1.55664-1.04004,2.77246-1.2002l4.34375-.57568v-.09619c0-1.82373-.81543-2.73584-2.44824-2.73584h-.26367c-.68848,0-1.25977.12402-1.71582.37207s-.82812.66797-1.11621,1.25977l-2.04004-1.05615c.36816-.84766.97168-1.51562,1.8125-2.00391.83984-.48779,1.85938-.73193,3.05957-.73193h.36035c1.63184,0,2.87109.41211,3.71973,1.23584.84766.82422,1.27246,2.02832,1.27246,3.6123v7.77588h-2.32812v-1.87207c-.36816.67188-.91211,1.2041-1.63281,1.59619-.71973.3916-1.53516.58789-2.44727.58789h-.16797Zm3.93555-6.09619l-3.26367.47998c-.83203.1123-1.41211.29639-1.74023.55225s-.49219.65625-.49219,1.2002.18848.97168.56445,1.28369.90723.46826,1.5957.46826h.24023c.94336,0,1.69531-.29199,2.25586-.87598.55957-.58398.83984-1.36426.83984-2.34033v-.76807Z"/><path class="cls-4" d="m434.00098,164.85303c-1.21582,0-2.21973-.19238-3.01172-.57617-.79199-.38428-1.41211-.95215-1.86035-1.7041l1.89648-1.41602c.31934.52783.71582.90771,1.1875,1.14014.47168.23145,1.09961.34814,1.88379.34814h.3125c2.04785,0,3.07227-1.16064,3.07227-3.47998v-1.27246c-.83203,1.16846-2.06445,1.75244-3.69629,1.75244h-.16797c-1.04004,0-1.95215-.24805-2.73633-.74414-.78418-.49561-1.3916-1.19189-1.82422-2.08789-.43164-.896-.64746-1.93604-.64746-3.12012v-.64795c0-1.18408.21582-2.22363.64746-3.12012.43262-.896,1.04004-1.5918,1.82422-2.08789s1.69629-.74414,2.73633-.74414h.16797c1.8877,0,3.23145.72021,4.03223,2.16016v-1.82422h2.32812v11.66406c0,1.83984-.48828,3.25977-1.46484,4.26025-.97559.99951-2.36816,1.5-4.17578,1.5h-.50391Zm.19238-7.46436h.21582c.94336,0,1.7002-.33984,2.26758-1.02002.56836-.67969.85254-1.57959.85254-2.69971v-.6001c0-1.13574-.28418-2.03613-.85254-2.7002-.56738-.66357-1.32422-.99609-2.26758-.99609h-.21582c-.97656,0-1.74414.32422-2.30469.97217-.55957.64795-.83984,1.54004-.83984,2.67627v.67188c0,1.13623.28027,2.03613.83984,2.69971.56055.66455,1.32812.99609,2.30469.99609Z"/><path class="cls-4" d="m448.54492,160.02881c-1.79199,0-3.1875-.52393-4.1875-1.57178s-1.5-2.54004-1.5-4.47607v-.79199c0-1.90381.51172-3.396,1.53613-4.47607,1.02344-1.08008,2.40723-1.62012,4.15137-1.62012h.2168c1.66309,0,2.97949.52002,3.94727,1.56006s1.45215,2.43994,1.45215,4.2002v1.46387h-8.71191c.04785,1.19971.33984,2.09619.87598,2.68799s1.27637.8877,2.21973.8877h.36035c.71973,0,1.31641-.12354,1.78809-.37158s.85156-.62012,1.13965-1.11621l1.91992,1.24805c-.43164.73633-1.06348,1.31641-1.89551,1.73975-.83203.42383-1.81641.63623-2.95215.63623h-.36035Zm-3.07129-7.56006h6.12012v-.16797c0-.9917-.25195-1.74805-.75684-2.26807-.50391-.51953-1.2041-.77979-2.09961-.77979h-.19238c-.87988,0-1.58789.27197-2.12402.81592s-.85156,1.34375-.94727,2.3999Z"/><path class="cls-4" d="m463.37598,159.7168v-16.7998h3.3125l5.63965,13.12793,5.63965-13.12793h3.2168v16.7998h-2.64062v-12.24023l-5.2793,12.24023h-1.96875l-5.30371-12.31201v12.31201h-2.61621Z"/><path class="cls-4" d="m490.20801,160.02881c-1.10352,0-2.0918-.23633-2.96387-.70801s-1.56348-1.16406-2.07617-2.07617c-.51172-.91162-.76758-2.00781-.76758-3.2876v-.76807c0-1.29639.25586-2.396.76758-3.30029.5127-.90381,1.2041-1.5957,2.07617-2.07568s1.86035-.72021,2.96387-.72021h.21582c1.10449,0,2.09668.24023,2.97656.72021s1.57227,1.17188,2.07617,2.07568c.50391.9043.75586,1.99609.75586,3.27637v.79199c0,1.27979-.25195,2.37598-.75586,3.2876-.50391.91211-1.19629,1.60449-2.07617,2.07617s-1.87207.70801-2.97656.70801h-.21582Zm0-2.25586h.19238c.91211,0,1.67188-.31201,2.28027-.93604.60742-.62402.91211-1.56787.91211-2.83203v-.88818c0-1.26367-.30469-2.20361-.91211-2.81982-.6084-.61572-1.36816-.92432-2.28027-.92432h-.19238c-.89551,0-1.64746.30859-2.25586.92432-.6084.61621-.91211,1.55615-.91211,2.81982v.88818c0,1.26416.30371,2.20801.91211,2.83203s1.36035.93604,2.25586.93604Z"/><path class="cls-4" d="m503.60059,160.02881c-1.00781,0-1.9043-.23193-2.68848-.6958s-1.39941-1.14795-1.84766-2.05225c-.44824-.90381-.67188-2.01172-.67188-3.32373v-.81641c0-1.2959.22363-2.3916.67188-3.2876s1.06348-1.58008,1.84766-2.05225c.78418-.47168,1.68066-.70801,2.68848-.70801h.16797c.81641,0,1.54004.15625,2.17188.46826.63184.31152,1.14746.75586,1.54785,1.33154v-6.6958h2.64062v17.52002h-2.32812v-1.82422c-.40039.67236-.93652,1.19629-1.6084,1.57227-.67188.37549-1.48047.56396-2.42383.56396h-.16797Zm.59961-2.25586h.19238c.54395,0,1.05176-.13232,1.52344-.396.47266-.26416.85645-.67578,1.15234-1.23633.2959-.55957.44434-1.2959.44434-2.20801v-.74365c0-.896-.14844-1.62402-.44434-2.18408s-.67969-.97217-1.15234-1.23633c-.47168-.26367-.97949-.396-1.52344-.396h-.19238c-.91211,0-1.66797.3042-2.26758.91211-.60059.6084-.90039,1.56006-.90039,2.85596v.84033c0,1.2959.2998,2.25195.90039,2.86768.59961.61621,1.35547.92432,2.26758.92432Z"/><path class="cls-4" d="m518.62402,160.02881c-1.79199,0-3.1875-.52393-4.1875-1.57178s-1.5-2.54004-1.5-4.47607v-.79199c0-1.90381.51172-3.396,1.53613-4.47607,1.02344-1.08008,2.40723-1.62012,4.15137-1.62012h.2168c1.66309,0,2.97949.52002,3.94727,1.56006s1.45215,2.43994,1.45215,4.2002v1.46387h-8.71191c.04785,1.19971.33984,2.09619.87598,2.68799s1.27637.8877,2.21973.8877h.36035c.71973,0,1.31641-.12354,1.78809-.37158s.85156-.62012,1.13965-1.11621l1.91992,1.24805c-.43164.73633-1.06348,1.31641-1.89551,1.73975-.83203.42383-1.81641.63623-2.95215.63623h-.36035Zm-3.07129-7.56006h6.12012v-.16797c0-.9917-.25195-1.74805-.75684-2.26807-.50391-.51953-1.2041-.77979-2.09961-.77979h-.19238c-.87988,0-1.58789.27197-2.12402.81592s-.85156,1.34375-.94727,2.3999Z"/><path class="cls-4" d="m526.97559,159.7168v-17.52002h2.63965v17.52002h-2.63965Z"/><path class="cls-4" d="m174.58984,446.36865v-16.7998h6.14453c1.90332,0,3.4082.45996,4.51172,1.37988,1.10449.92041,1.65625,2.18799,1.65625,3.80371v.50439c0,1.66406-.55176,2.94824-1.65625,3.85205-1.10352.90381-2.6084,1.35596-4.51172,1.35596h-3.38379v5.90381h-2.76074Zm2.76074-8.25586h3.31152c1.05566,0,1.89941-.22412,2.53223-.67236.63184-.44775.94824-1.15186.94824-2.11182v-.62402c0-.94385-.31641-1.63965-.94824-2.08789-.63281-.44775-1.47656-.67188-2.53223-.67188h-3.31152v6.16797Z"/><path class="cls-4" d="m189.32617,446.36865v-12.28809h2.32812v2.32812c.30371-.75195.73145-1.35205,1.28418-1.7998.55176-.44775,1.32324-.67236,2.31543-.67236h1.24805v2.44824h-1.22363c-.57617,0-1.11621.12793-1.62012.38379-.50391.25635-.91211.66016-1.22363,1.21191-.3125.55225-.46875,1.28418-.46875,2.19629v6.19189h-2.63965Z"/><path class="cls-4" d="m203.55762,446.68066c-1.10352,0-2.0918-.23633-2.96387-.70801s-1.56348-1.16406-2.07617-2.07617c-.51172-.91162-.76758-2.00781-.76758-3.2876v-.76807c0-1.29639.25586-2.396.76758-3.30029.5127-.90381,1.2041-1.5957,2.07617-2.07568s1.86035-.72021,2.96387-.72021h.21582c1.10449,0,2.09668.24023,2.97656.72021s1.57227,1.17188,2.07617,2.07568c.50391.9043.75586,1.99609.75586,3.27637v.79199c0,1.27979-.25195,2.37598-.75586,3.2876-.50391.91211-1.19629,1.60449-2.07617,2.07617s-1.87207.70801-2.97656.70801h-.21582Zm0-2.25586h.19238c.91211,0,1.67188-.31201,2.28027-.93604.60742-.62402.91211-1.56787.91211-2.83203v-.88818c0-1.26367-.30469-2.20361-.91211-2.81982-.6084-.61572-1.36816-.92432-2.28027-.92432h-.19238c-.89551,0-1.64746.30859-2.25586.92432-.6084.61621-.91211,1.55615-.91211,2.81982v.88818c0,1.26416.30371,2.20801.91211,2.83203s1.36035.93604,2.25586.93604Z"/><path class="cls-4" d="m209.89453,451.16846v-2.23193h.91113c.56055,0,.96875-.16016,1.22461-.47998.25586-.32031.38379-.80029.38379-1.43994v-12.93604h2.63965v12.93604c0,1.31201-.33984,2.33203-1.01953,3.06006-.68066.72803-1.75586,1.0918-3.22852,1.0918h-.91113Zm2.47168-19.27197v-2.75977h2.73633v2.75977h-2.73633Z"/><path class="cls-4" d="m223.5498,446.68066c-1.79199,0-3.1875-.52393-4.1875-1.57178s-1.5-2.54004-1.5-4.47607v-.79199c0-1.90381.51172-3.396,1.53613-4.47607,1.02344-1.08008,2.40723-1.62012,4.15137-1.62012h.2168c1.66309,0,2.97949.52002,3.94727,1.56006s1.45215,2.43994,1.45215,4.2002v1.46387h-8.71191c.04785,1.19971.33984,2.09619.87598,2.68799s1.27637.8877,2.21973.8877h.36035c.71973,0,1.31641-.12354,1.78809-.37158s.85156-.62012,1.13965-1.11621l1.91992,1.24805c-.43164.73633-1.06348,1.31641-1.89551,1.73975-.83203.42383-1.81641.63623-2.95215.63623h-.36035Zm-3.07129-7.56006h6.12012v-.16797c0-.9917-.25195-1.74805-.75684-2.26807-.50391-.51953-1.2041-.77979-2.09961-.77979h-.19238c-.87988,0-1.58789.27197-2.12402.81592s-.85156,1.34375-.94727,2.3999Z"/><path class="cls-4" d="m237.06152,446.68066c-1.79199,0-3.21191-.52393-4.25977-1.57178-1.04883-1.04785-1.57227-2.54785-1.57227-4.5v-.79199c0-1.28027.24414-2.37207.73145-3.27637.48828-.90381,1.17188-1.5957,2.05273-2.07568.87988-.47998,1.89551-.72021,3.04785-.72021h.24023c1.13574,0,2.09961.27246,2.8916.81592.79199.54443,1.36426,1.26416,1.71582,2.16016l-2.11133.93604c-.24023-.49561-.56445-.8916-.97266-1.18799-.4082-.2959-.91602-.44434-1.52344-.44434h-.2168c-.94336,0-1.71582.31201-2.31543.93604-.60059.62402-.90039,1.56006-.90039,2.80811v.88818c0,1.2959.29199,2.24805.87598,2.85596.58398.6084,1.36426.91211,2.33984.91211h.2168c.63965,0,1.17578-.14014,1.60742-.41992.43262-.27979.76855-.66016,1.00781-1.14014l2.06445,1.08008c-.35254.80029-.93555,1.45605-1.75195,1.96777s-1.79199.76807-2.92773.76807h-.24023Z"/><path class="cls-4" d="m250.11719,446.48877c-1.55176,0-2.65625-.34814-3.3125-1.04395-.65625-.69629-.9834-1.69238-.9834-2.98828v-6.19189h-2.5918v-2.18408h2.5918v-3.62402h2.63965v3.62402h4.00781l-.31152,2.18408h-3.69629v6.07178c0,.68848.16016,1.18018.48047,1.47607.31934.29639.7998.44434,1.43945.44434h2.08789v2.23193h-2.35156Z"/><path class="cls-4" d="m260.2207,446.68066c-1.10352,0-2.0918-.23633-2.96387-.70801s-1.56348-1.16406-2.07617-2.07617c-.51172-.91162-.76758-2.00781-.76758-3.2876v-.76807c0-1.29639.25586-2.396.76758-3.30029.5127-.90381,1.2041-1.5957,2.07617-2.07568s1.86035-.72021,2.96387-.72021h.21582c1.10449,0,2.09668.24023,2.97656.72021s1.57227,1.17188,2.07617,2.07568c.50391.9043.75586,1.99609.75586,3.27637v.79199c0,1.27979-.25195,2.37598-.75586,3.2876-.50391.91211-1.19629,1.60449-2.07617,2.07617s-1.87207.70801-2.97656.70801h-.21582Zm0-2.25586h.19238c.91211,0,1.67188-.31201,2.28027-.93604.60742-.62402.91211-1.56787.91211-2.83203v-.88818c0-1.26367-.30469-2.20361-.91211-2.81982-.6084-.61572-1.36816-.92432-2.28027-.92432h-.19238c-.89551,0-1.64746.30859-2.25586.92432-.6084.61621-.91211,1.55615-.91211,2.81982v.88818c0,1.26416.30371,2.20801.91211,2.83203s1.36035.93604,2.25586.93604Z"/><path class="cls-4" d="m269.07715,446.36865v-12.28809h2.32812v2.32812c.30371-.75195.73145-1.35205,1.28418-1.7998.55176-.44775,1.32324-.67236,2.31543-.67236h1.24805v2.44824h-1.22363c-.57617,0-1.11621.12793-1.62012.38379-.50391.25635-.91211.66016-1.22363,1.21191-.3125.55225-.46875,1.28418-.46875,2.19629v6.19189h-2.63965Z"/><path class="cls-4" d="m147.38672,595.70996l-6.33594-16.7998h2.95215l4.67969,13.34375,4.68066-13.34375h2.83203l-6.38477,16.7998h-2.42383Z"/><path class="cls-4" d="m158.40234,581.2373v-2.75977h2.73633v2.75977h-2.73633Zm.04785,14.47266v-12.28809h2.63965v12.28809h-2.63965Z"/><path class="cls-4" d="m168.91504,596.02148c-2.78418,0-4.56055-.93555-5.32812-2.80762l2.06348-1.05566c.27246.5752.66797,1,1.18848,1.27148.51953.27246,1.21973.4082,2.09961.4082h.28809c1.64746,0,2.47168-.48828,2.47168-1.46387v-.09668c0-.83105-.51953-1.31934-1.55957-1.46387l-2.61621-.35938c-1.13574-.16016-2.01172-.53223-2.62793-1.11621s-.92383-1.36426-.92383-2.33984v-.26465c0-1.10352.43164-1.9873,1.2959-2.65137s2.01562-.99609,3.45605-.99609h.33594c1.18359,0,2.2002.24023,3.04785.71973.84766.48047,1.44824,1.14453,1.7998,1.99219l-2.11133.93555c-.43262-.97559-1.35254-1.46387-2.76074-1.46387h-.28711c-.70508,0-1.25293.12891-1.64453.38379-.39258.25684-.58789.6084-.58789,1.05664v.12012c0,.36816.11621.65918.34766.87598.23242.21582.62012.36426,1.16406.44336l2.66406.36035c1.13574.16016,2.01172.55566,2.62793,1.1875.61621.63281.92383,1.44434.92383,2.43652v.26367c0,1.18457-.42383,2.08496-1.27148,2.7002-.84863.61621-2.08789.92383-3.71973.92383h-.33594Z"/><path class="cls-4" d="m176.76172,581.2373v-2.75977h2.73633v2.75977h-2.73633Zm.04785,14.47266v-12.28809h2.63965v12.28809h-2.63965Z"/><path class="cls-4" d="m188.06543,596.02148c-1.10352,0-2.0918-.23633-2.96387-.70801s-1.56348-1.16406-2.07617-2.07617c-.51172-.91113-.76758-2.00781-.76758-3.28711v-.76855c0-1.2959.25586-2.39551.76758-3.2998.5127-.9043,1.2041-1.5957,2.07617-2.07617.87207-.47949,1.86035-.71973,2.96387-.71973h.21582c1.10449,0,2.09668.24023,2.97656.71973.87988.48047,1.57227,1.17188,2.07617,2.07617s.75586,1.99609.75586,3.27637v.79199c0,1.2793-.25195,2.37598-.75586,3.28711-.50391.91211-1.19629,1.60449-2.07617,2.07617s-1.87207.70801-2.97656.70801h-.21582Zm0-2.25586h.19238c.91211,0,1.67188-.31152,2.28027-.93555.60742-.62402.91211-1.56836.91211-2.83203v-.88867c0-1.26367-.30469-2.20312-.91211-2.81934-.6084-.61621-1.36816-.9248-2.28027-.9248h-.19238c-.89551,0-1.64746.30859-2.25586.9248s-.91211,1.55566-.91211,2.81934v.88867c0,1.26367.30371,2.20801.91211,2.83203s1.36035.93555,2.25586.93555Z"/><path class="cls-4" d="m196.92187,595.70996v-12.28809h2.32812v1.84766c.38379-.67188.9082-1.20312,1.57227-1.5957.66309-.3916,1.45117-.58789,2.36328-.58789h.24023c1.39258,0,2.50391.43164,3.33594,1.2959s1.24805,2.1123,1.24805,3.74414v7.58398h-2.63965v-7.22461c0-1.00781-.21582-1.7793-.64844-2.31543-.43164-.53613-1.08789-.80469-1.96777-.80469h-.16797c-.5127,0-1,.12891-1.46387.38477-.46484.25586-.83984.64746-1.12793,1.17578s-.43262,1.2002-.43262,2.01562v6.76855h-2.63965Z"/><path class="cls-4" d="m217.8252,595.70996v-16.7998h10.7998v2.32715h-8.03906v4.80078h6.52734l-.33594,2.32715h-6.19141v5.0166h8.15918v2.32812h-10.91992Z"/><path class="cls-4" d="m231.79297,595.70996v-12.28809h2.32812v1.84766c.38379-.67188.9082-1.20312,1.57227-1.5957.66309-.3916,1.45117-.58789,2.36328-.58789h.24023c1.39258,0,2.50391.43164,3.33594,1.2959s1.24805,2.1123,1.24805,3.74414v7.58398h-2.63965v-7.22461c0-1.00781-.21582-1.7793-.64844-2.31543-.43164-.53613-1.08789-.80469-1.96777-.80469h-.16797c-.5127,0-1,.12891-1.46387.38477-.46484.25586-.83984.64746-1.12793,1.17578s-.43262,1.2002-.43262,2.01562v6.76855h-2.63965Z"/><path class="cls-4" d="m251.37793,596.02148c-1.79199,0-3.21191-.52344-4.25977-1.57129-1.04883-1.04785-1.57227-2.54785-1.57227-4.5v-.79199c0-1.28027.24414-2.37207.73145-3.27637.48828-.9043,1.17188-1.5957,2.05273-2.07617.87988-.47949,1.89551-.71973,3.04785-.71973h.24023c1.13574,0,2.09961.27246,2.8916.81543.79199.54492,1.36426,1.26465,1.71582,2.16016l-2.11133.93652c-.24023-.49609-.56445-.8916-.97266-1.18848-.4082-.2959-.91602-.44434-1.52344-.44434h-.2168c-.94336,0-1.71582.3125-2.31543.93652-.60059.62402-.90039,1.55957-.90039,2.80762v.88867c0,1.2959.29199,2.24805.87598,2.85547.58398.6084,1.36426.91211,2.33984.91211h.2168c.63965,0,1.17578-.13965,1.60742-.41992.43262-.2793.76855-.66016,1.00781-1.13965l2.06445,1.08008c-.35254.7998-.93555,1.45605-1.75195,1.96777s-1.79199.76758-2.92773.76758h-.24023Z"/><path class="cls-4" d="m264.04883,596.02148c-1.10352,0-2.0918-.23633-2.96387-.70801s-1.56348-1.16406-2.07617-2.07617c-.51172-.91113-.76758-2.00781-.76758-3.28711v-.76855c0-1.2959.25586-2.39551.76758-3.2998.5127-.9043,1.2041-1.5957,2.07617-2.07617.87207-.47949,1.86035-.71973,2.96387-.71973h.21582c1.10449,0,2.09668.24023,2.97656.71973.87988.48047,1.57227,1.17188,2.07617,2.07617s.75586,1.99609.75586,3.27637v.79199c0,1.2793-.25195,2.37598-.75586,3.28711-.50391.91211-1.19629,1.60449-2.07617,2.07617s-1.87207.70801-2.97656.70801h-.21582Zm0-2.25586h.19238c.91211,0,1.67188-.31152,2.28027-.93555.60742-.62402.91211-1.56836.91211-2.83203v-.88867c0-1.26367-.30469-2.20312-.91211-2.81934-.6084-.61621-1.36816-.9248-2.28027-.9248h-.19238c-.89551,0-1.64746.30859-2.25586.9248s-.91211,1.55566-.91211,2.81934v.88867c0,1.26367.30371,2.20801.91211,2.83203s1.36035.93555,2.25586.93555Z"/><path class="cls-4" d="m277.44141,596.02148c-1.00781,0-1.9043-.23145-2.68848-.69531s-1.39941-1.14844-1.84766-2.05273c-.44824-.90332-.67188-2.01172-.67188-3.32324v-.81641c0-1.2959.22363-2.3916.67188-3.28809.44824-.89551,1.06348-1.58008,1.84766-2.05176s1.68066-.70801,2.68848-.70801h.16797c.81641,0,1.54004.15625,2.17188.46777s1.14746.75586,1.54785,1.33203v-6.69629h2.64062v17.52051h-2.32812v-1.82422c-.40039.67188-.93652,1.19629-1.6084,1.57227-.67188.375-1.48047.56348-2.42383.56348h-.16797Zm.59961-2.25586h.19238c.54395,0,1.05176-.13184,1.52344-.39551.47266-.26465.85645-.67578,1.15234-1.23633.2959-.55957.44434-1.2959.44434-2.20801v-.74414c0-.89551-.14844-1.62402-.44434-2.18359-.2959-.56055-.67969-.97266-1.15234-1.23633-.47168-.26367-.97949-.39648-1.52344-.39648h-.19238c-.91211,0-1.66797.30469-2.26758.91211-.60059.6084-.90039,1.56055-.90039,2.85645v.83984c0,1.2959.2998,2.25195.90039,2.86816.59961.61621,1.35547.92383,2.26758.92383Z"/><path class="cls-4" d="m292.46387,596.02148c-1.79199,0-3.1875-.52344-4.1875-1.57129s-1.5-2.54004-1.5-4.47656v-.79199c0-1.90332.51172-3.39551,1.53613-4.47559,1.02344-1.08008,2.40723-1.62012,4.15137-1.62012h.2168c1.66309,0,2.97949.51953,3.94727,1.55957s1.45215,2.44043,1.45215,4.2002v1.46387h-8.71191c.04785,1.2002.33984,2.09668.87598,2.68848s1.27637.8877,2.21973.8877h.36035c.71973,0,1.31641-.12402,1.78809-.37207s.85156-.62012,1.13965-1.11621l1.91992,1.24805c-.43164.73633-1.06348,1.31641-1.89551,1.74023s-1.81641.63574-2.95215.63574h-.36035Zm-3.07129-7.55957h6.12012v-.16797c0-.99219-.25195-1.74805-.75684-2.26855-.50391-.51953-1.2041-.7793-2.09961-.7793h-.19238c-.87988,0-1.58789.27148-2.12402.81543s-.85156,1.34375-.94727,2.40039Z"/><path class="cls-4" d="m300.81641,595.70996v-12.28809h2.32812v2.32812c.30371-.75195.73145-1.35254,1.28418-1.7998.55176-.44824,1.32324-.67285,2.31543-.67285h1.24805v2.44824h-1.22363c-.57617,0-1.11621.12793-1.62012.38379-.50391.25684-.91211.66016-1.22363,1.21191-.3125.55273-.46875,1.28418-.46875,2.19629v6.19238h-2.63965Z"/><path class="cls-4" d="m158.66602,787.30566v-16.7998h2.76074v16.7998h-2.76074Z"/><path class="cls-4" d="m165.31445,787.30566v-12.28809h2.32812v1.82422c.36816-.67285.85938-1.2002,1.47559-1.58398.61621-.38477,1.33984-.57617,2.17188-.57617h.2168c1.85547,0,3.13574.75977,3.83984,2.2793.38379-.70312.90723-1.25977,1.57227-1.66797.66309-.40723,1.43555-.61133,2.31543-.61133h.21582c1.34473,0,2.4043.43164,3.18066,1.2959.77539.86426,1.16406,2.1123,1.16406,3.74414v7.58398h-2.64062v-7.22461c0-1.00781-.18848-1.7793-.56348-2.31543-.37598-.53613-.97266-.80469-1.78809-.80469h-.19238c-.44824,0-.88379.12891-1.30762.38477-.4248.25586-.76855.64746-1.03223,1.17578s-.39648,1.2002-.39648,2.01562v6.76855h-2.63965v-7.22461c0-1.00781-.18848-1.7793-.56348-2.31543-.37695-.53613-.97266-.80469-1.78809-.80469h-.19238c-.44824,0-.88379.12891-1.30762.38477-.4248.25586-.76855.64746-1.03223,1.17578s-.39648,1.2002-.39648,2.01562v6.76855h-2.63965Z"/><path class="cls-4" d="m190.49023,787.61719c-1.3125,0-2.32812-.32422-3.04785-.97168-.7207-.64844-1.08008-1.55566-1.08008-2.72363,0-1.00879.31543-1.83203.94727-2.47266.63184-.63965,1.55664-1.04004,2.77246-1.2002l4.34375-.5752v-.09668c0-1.82324-.81543-2.73535-2.44824-2.73535h-.26367c-.68848,0-1.25977.12402-1.71582.37207s-.82812.66797-1.11621,1.25977l-2.04004-1.05664c.36816-.84766.97168-1.51562,1.8125-2.00391.83984-.4873,1.85938-.73145,3.05957-.73145h.36035c1.63184,0,2.87109.41211,3.71973,1.23535.84766.82422,1.27246,2.02832,1.27246,3.6123v7.77637h-2.32812v-1.87207c-.36816.67188-.91211,1.2041-1.63281,1.5957-.71973.3916-1.53516.58789-2.44727.58789h-.16797Zm3.93555-6.0957l-3.26367.47949c-.83203.1123-1.41211.29688-1.74023.55273s-.49219.65625-.49219,1.2002.18848.97168.56445,1.2832c.37598.3125.90723.46875,1.5957.46875h.24023c.94336,0,1.69531-.29199,2.25586-.87598.55957-.58398.83984-1.36426.83984-2.34082v-.76758Z"/><path class="cls-4" d="m205.32227,792.44141c-1.21582,0-2.21973-.19238-3.01172-.57617s-1.41211-.95215-1.86035-1.7041l1.89648-1.41602c.31934.52832.71582.9082,1.1875,1.14062.47168.23145,1.09961.34766,1.88379.34766h.3125c2.04785,0,3.07227-1.16016,3.07227-3.47949v-1.27246c-.83203,1.16797-2.06445,1.75195-3.69629,1.75195h-.16797c-1.04004,0-1.95215-.24805-2.73633-.74414-.78418-.49512-1.3916-1.19141-1.82422-2.08789-.43164-.89551-.64746-1.93555-.64746-3.12012v-.64746c0-1.18457.21582-2.22363.64746-3.12012.43262-.89648,1.04004-1.5918,1.82422-2.08789s1.69629-.74414,2.73633-.74414h.16797c1.8877,0,3.23145.71973,4.03223,2.16016v-1.82422h2.32812v11.66406c0,1.83984-.48828,3.25977-1.46484,4.25977-.97559,1-2.36816,1.5-4.17578,1.5h-.50391Zm.19238-7.46387h.21582c.94336,0,1.7002-.33984,2.26758-1.02051.56836-.67969.85254-1.5791.85254-2.69922v-.60059c0-1.13574-.28418-2.03613-.85254-2.7002-.56738-.66309-1.32422-.99609-2.26758-.99609h-.21582c-.97656,0-1.74414.32422-2.30469.97266-.55957.64746-.83984,1.54004-.83984,2.67578v.67188c0,1.13672.28027,2.03613.83984,2.7002.56055.66406,1.32812.99609,2.30469.99609Z"/><path class="cls-4" d="m219.86523,787.61719c-1.79199,0-3.1875-.52344-4.1875-1.57129s-1.5-2.54004-1.5-4.47656v-.79199c0-1.90332.51172-3.39551,1.53613-4.47559,1.02344-1.08008,2.40723-1.62012,4.15137-1.62012h.2168c1.66309,0,2.97949.51953,3.94727,1.55957s1.45215,2.44043,1.45215,4.2002v1.46387h-8.71191c.04785,1.2002.33984,2.09668.87598,2.68848s1.27637.8877,2.21973.8877h.36035c.71973,0,1.31641-.12402,1.78809-.37207s.85156-.62012,1.13965-1.11621l1.91992,1.24805c-.43164.73633-1.06348,1.31641-1.89551,1.74023s-1.81641.63574-2.95215.63574h-.36035Zm-3.07129-7.55957h6.12012v-.16797c0-.99219-.25195-1.74805-.75684-2.26855-.50391-.51953-1.2041-.7793-2.09961-.7793h-.19238c-.87988,0-1.58789.27148-2.12402.81543s-.85156,1.34375-.94727,2.40039Z"/><path class="cls-4" d="m234.69727,787.30566v-16.7998h2.76074v16.7998h-2.76074Z"/><path class="cls-4" d="m241.3457,787.30566v-12.28809h2.32812v1.84766c.38379-.67188.9082-1.20312,1.57227-1.5957.66309-.3916,1.45117-.58789,2.36328-.58789h.24023c1.39258,0,2.50391.43164,3.33594,1.2959s1.24805,2.1123,1.24805,3.74414v7.58398h-2.63965v-7.22461c0-1.00781-.21582-1.7793-.64844-2.31543-.43164-.53613-1.08789-.80469-1.96777-.80469h-.16797c-.5127,0-1,.12891-1.46387.38477-.46484.25586-.83984.64746-1.12793,1.17578s-.43262,1.2002-.43262,2.01562v6.76855h-2.63965Z"/><path class="cls-4" d="m255.76953,792.10547v-17.08789h2.32812v1.7998c.38379-.67188.91602-1.19629,1.5957-1.57227.67969-.375,1.49219-.56348,2.43652-.56348h.14355c1.00781,0,1.9043.23633,2.68848.70801.7832.47168,1.40332,1.16016,1.85938,2.06348.45605.9043.68457,2.0127.68457,3.32422v.79199c0,1.2959-.22852,2.39648-.68457,3.2998-.45605.9043-1.07617,1.58887-1.85938,2.05273-.78418.46387-1.68066.69531-2.68848.69531h-.14355c-.81641,0-1.54004-.15234-2.17188-.45605-.63281-.30371-1.14844-.73535-1.54883-1.2959v6.24023h-2.63965Zm5.71191-6.74414h.19238c.91211,0,1.67188-.30371,2.2793-.91211.6084-.60742.91211-1.56738.91211-2.87988v-.81543c0-1.3125-.30371-2.27246-.91211-2.88086-.60742-.60742-1.36719-.91211-2.2793-.91211h-.19238c-.54395,0-1.05176.12891-1.52344.38477-.47266.25586-.85645.66406-1.15234,1.22363-.2959.56055-.44434,1.2959-.44434,2.20801v.74414c0,.89648.14844,1.62793.44434,2.19629.2959.56738.68359.9834,1.16406,1.24805.47949.26367.9834.39551,1.51172.39551Z"/><path class="cls-4" d="m274.60937,787.61719c-1.36035,0-2.44434-.42773-3.25195-1.28418-.80762-.85547-1.21191-2.09961-1.21191-3.73145v-7.58398h2.63965v7.2002c0,1.02344.2041,1.80371.6123,2.33984s1.02832.80371,1.86035.80371h.16797c.49512,0,.96387-.12793,1.40332-.38379.44043-.25586.80078-.65234,1.08008-1.18848.28027-.53516.41992-1.20312.41992-2.00391v-6.76758h2.64062v12.28809h-2.35254v-1.82422c-.36816.65625-.87207,1.17578-1.51172,1.55957-.63965.38477-1.40039.57617-2.28027.57617h-.21582Z"/><path class="cls-4" d="m289.70508,787.42578c-1.55176,0-2.65625-.34863-3.3125-1.04395-.65625-.69629-.9834-1.69238-.9834-2.98828v-6.19238h-2.5918v-2.18359h2.5918v-3.62402h2.63965v3.62402h4.00781l-.31152,2.18359h-3.69629v6.07227c0,.68848.16016,1.17969.48047,1.47559.31934.29688.7998.44434,1.43945.44434h2.08789v2.23242h-2.35156Z"/><path class="cls-4" d="m554.5918,787.30566v-14.42383h-5.20801v-2.37598h13.17578v2.37598h-5.20801v14.42383h-2.75977Z"/><path class="cls-4" d="m568.43848,787.61719c-1.79199,0-3.1875-.52344-4.1875-1.57129s-1.5-2.54004-1.5-4.47656v-.79199c0-1.90332.51172-3.39551,1.53613-4.47559,1.02344-1.08008,2.40723-1.62012,4.15137-1.62012h.2168c1.66309,0,2.97949.51953,3.94727,1.55957s1.45215,2.44043,1.45215,4.2002v1.46387h-8.71191c.04785,1.2002.33984,2.09668.87598,2.68848s1.27637.8877,2.21973.8877h.36035c.71973,0,1.31641-.12402,1.78809-.37207s.85156-.62012,1.13965-1.11621l1.91992,1.24805c-.43164.73633-1.06348,1.31641-1.89551,1.74023s-1.81641.63574-2.95215.63574h-.36035Zm-3.07129-7.55957h6.12012v-.16797c0-.99219-.25195-1.74805-.75684-2.26855-.50391-.51953-1.2041-.7793-2.09961-.7793h-.19238c-.87988,0-1.58789.27148-2.12402.81543s-.85156,1.34375-.94727,2.40039Z"/><path class="cls-4" d="m584.13574,787.30566l-2.88086-4.39258-2.87988,4.39258h-2.97559l4.32031-6.26465-4.15234-6.02344h3.0957l2.73633,4.17578,2.73633-4.17578h2.95117l-4.17578,6.04785,4.34375,6.24023h-3.11914Z"/><path class="cls-4" d="m595.0791,787.42578c-1.55176,0-2.65625-.34863-3.3125-1.04395-.65625-.69629-.9834-1.69238-.9834-2.98828v-6.19238h-2.5918v-2.18359h2.5918v-3.62402h2.63965v3.62402h4.00781l-.31152,2.18359h-3.69629v6.07227c0,.68848.16016,1.17969.48047,1.47559.31934.29688.7998.44434,1.43945.44434h2.08789v2.23242h-2.35156Z"/><path class="cls-4" d="m606.52637,787.30566v-16.7998h6.14453c1.90332,0,3.4082.45996,4.51172,1.37988,1.10449.91992,1.65625,2.1875,1.65625,3.80371v.50391c0,1.66406-.55176,2.94824-1.65625,3.85254-1.10352.90332-2.6084,1.35547-4.51172,1.35547h-3.38379v5.9043h-2.76074Zm2.76074-8.25586h3.31152c1.05566,0,1.89941-.22461,2.53223-.67285.63184-.44727.94824-1.15137.94824-2.11133v-.62402c0-.94434-.31641-1.63965-.94824-2.08789-.63281-.44824-1.47656-.67188-2.53223-.67188h-3.31152v6.16797Z"/><path class="cls-4" d="m621.26172,787.30566v-12.28809h2.32812v2.32812c.30371-.75195.73145-1.35254,1.28418-1.7998.55176-.44824,1.32324-.67285,2.31543-.67285h1.24805v2.44824h-1.22363c-.57617,0-1.11621.12793-1.62012.38379-.50391.25684-.91211.66016-1.22363,1.21191-.3125.55273-.46875,1.28418-.46875,2.19629v6.19238h-2.63965Z"/><path class="cls-4" d="m635.49414,787.61719c-1.10352,0-2.0918-.23633-2.96387-.70801s-1.56348-1.16406-2.07617-2.07617c-.51172-.91113-.76758-2.00781-.76758-3.28711v-.76855c0-1.2959.25586-2.39551.76758-3.2998.5127-.9043,1.2041-1.5957,2.07617-2.07617.87207-.47949,1.86035-.71973,2.96387-.71973h.21582c1.10449,0,2.09668.24023,2.97656.71973.87988.48047,1.57227,1.17188,2.07617,2.07617s.75586,1.99609.75586,3.27637v.79199c0,1.2793-.25195,2.37598-.75586,3.28711-.50391.91211-1.19629,1.60449-2.07617,2.07617s-1.87207.70801-2.97656.70801h-.21582Zm0-2.25586h.19238c.91211,0,1.67188-.31152,2.28027-.93555.60742-.62402.91211-1.56836.91211-2.83203v-.88867c0-1.26367-.30469-2.20312-.91211-2.81934-.6084-.61621-1.36816-.9248-2.28027-.9248h-.19238c-.89551,0-1.64746.30859-2.25586.9248s-.91211,1.55566-.91211,2.81934v.88867c0,1.26367.30371,2.20801.91211,2.83203s1.36035.93555,2.25586.93555Z"/><path class="cls-4" d="m644.35059,787.30566v-12.28809h2.32812v1.82422c.36816-.67285.85938-1.2002,1.47559-1.58398.61621-.38477,1.33984-.57617,2.17188-.57617h.2168c1.85547,0,3.13574.75977,3.83984,2.2793.38379-.70312.90723-1.25977,1.57227-1.66797.66309-.40723,1.43555-.61133,2.31543-.61133h.21582c1.34473,0,2.4043.43164,3.18066,1.2959.77539.86426,1.16406,2.1123,1.16406,3.74414v7.58398h-2.64062v-7.22461c0-1.00781-.18848-1.7793-.56348-2.31543-.37598-.53613-.97266-.80469-1.78809-.80469h-.19238c-.44824,0-.88379.12891-1.30762.38477-.4248.25586-.76855.64746-1.03223,1.17578s-.39648,1.2002-.39648,2.01562v6.76855h-2.63965v-7.22461c0-1.00781-.18848-1.7793-.56348-2.31543-.37695-.53613-.97266-.80469-1.78809-.80469h-.19238c-.44824,0-.88379.12891-1.30762.38477-.4248.25586-.76855.64746-1.03223,1.17578s-.39648,1.2002-.39648,2.01562v6.76855h-2.63965Z"/><path class="cls-4" d="m666.16602,792.10547v-17.08789h2.32812v1.7998c.38379-.67188.91602-1.19629,1.5957-1.57227.67969-.375,1.49219-.56348,2.43652-.56348h.14355c1.00781,0,1.9043.23633,2.68848.70801.7832.47168,1.40332,1.16016,1.85938,2.06348.45605.9043.68457,2.0127.68457,3.32422v.79199c0,1.2959-.22852,2.39648-.68457,3.2998-.45605.9043-1.07617,1.58887-1.85938,2.05273-.78418.46387-1.68066.69531-2.68848.69531h-.14355c-.81641,0-1.54004-.15234-2.17188-.45605-.63281-.30371-1.14844-.73535-1.54883-1.2959v6.24023h-2.63965Zm5.71191-6.74414h.19238c.91211,0,1.67188-.30371,2.2793-.91211.6084-.60742.91211-1.56738.91211-2.87988v-.81543c0-1.3125-.30371-2.27246-.91211-2.88086-.60742-.60742-1.36719-.91211-2.2793-.91211h-.19238c-.54395,0-1.05176.12891-1.52344.38477-.47266.25586-.85645.66406-1.15234,1.22363-.2959.56055-.44434,1.2959-.44434,2.20801v.74414c0,.89648.14844,1.62793.44434,2.19629.2959.56738.68359.9834,1.16406,1.24805.47949.26367.9834.39551,1.51172.39551Z"/><path class="cls-4" d="m685.8457,787.42578c-1.55176,0-2.65625-.34863-3.3125-1.04395-.65625-.69629-.9834-1.69238-.9834-2.98828v-6.19238h-2.5918v-2.18359h2.5918v-3.62402h2.63965v3.62402h4.00781l-.31152,2.18359h-3.69629v6.07227c0,.68848.16016,1.17969.48047,1.47559.31934.29688.7998.44434,1.43945.44434h2.08789v2.23242h-2.35156Z"/><rect class="cls-4" x="217.03516" y="341.24854" width="1" height="49.07227"/><polygon class="cls-4" points="222.52173 342.70734 217.5354 334.07211 212.54907 342.70734 222.52173 342.70734"/><rect class="cls-4" x="217.03516" y="492.86816" width="1" height="49.07324"/><polygon class="cls-4" points="222.52173 494.32739 217.5354 485.6922 212.54907 494.32739 222.52173 494.32739"/><rect class="cls-4" x="217.03516" y="644.48828" width="1" height="49.07324"/><polygon class="cls-4" points="222.52173 645.94751 217.5354 637.31226 212.54907 645.94751 222.52173 645.94751"/><rect class="cls-4" x="402.625" y="199.01416" width="1" height="42.81738"/><polygon class="cls-4" points="408.11133 200.47311 403.125 191.83789 398.13867 200.47311 408.11133 200.47311"/><rect class="cls-4" x="618.48242" y="68.74512" width="1" height="42.81738"/><polygon class="cls-4" points="623.96826 70.20421 618.98193 61.56898 613.99561 70.20421 623.96826 70.20421"/><rect class="cls-4" x="618.48242" y="341.24902" width="1" height="352.22168"/><polygon class="cls-4" points="623.96826 342.70776 618.98193 334.07254 613.99561 342.70776 623.96826 342.70776"/><rect class="cls-2" x="36.37463" y="262.10032" width="85.92857" height="55.8125"/><rect class="cls-2" x="144.30321" y="262.10032" width="85.92857" height="55.8125"/><rect class="cls-2" x="252.23178" y="262.10032" width="85.92857" height="55.8125"/><rect class="cls-2" x="360.16035" y="262.10032" width="85.92857" height="55.8125"/><rect class="cls-1" x="468.08892" y="262.10032" width="85.92857" height="55.8125"/><rect class="cls-1" x="576.01749" y="262.10032" width="85.92857" height="55.8125"/><rect class="cls-1" x="683.94606" y="262.10032" width="85.92857" height="55.8125"/><path class="cls-4" d="m176.25488,241.83154v-14.7002h2.41504v14.7002h-2.41504Z"/><path class="cls-4" d="m182.07227,241.83154v-10.75195h2.03711v1.59619c.32129-.58838.75195-1.05029,1.29102-1.38623s1.17285-.50391,1.90039-.50391h.18945c1.62402,0,2.74316.66504,3.35938,1.99512.33691-.61621.79492-1.10254,1.37598-1.45996.58105-.35693,1.25684-.53516,2.02637-.53516h.18945c1.17578,0,2.10254.37793,2.78223,1.13379.67871.75635,1.01855,1.84814,1.01855,3.27588v6.63623h-2.31055v-6.3208c0-.88232-.16406-1.55762-.49316-2.02686-.3291-.46875-.85059-.70312-1.56445-.70312h-.16797c-.39258,0-.77344.11182-1.14453.33594s-.67188.56689-.90332,1.02881c-.23047.46191-.3457,1.0498-.3457,1.76416v5.92188h-2.31055v-6.3208c0-.88232-.16504-1.55762-.49316-2.02686-.3291-.46875-.85059-.70312-1.56445-.70312h-.16797c-.39258,0-.77441.11182-1.14453.33594-.37109.22412-.67188.56689-.90332,1.02881-.23047.46191-.34668,1.0498-.34668,1.76416v5.92188h-2.30957Z"/><path class="cls-4" d="m204.10059,242.10449c-1.14746,0-2.03711-.28369-2.66699-.85059s-.94434-1.36133-.94434-2.3833c0-.88184.27637-1.60303.8291-2.16309.55273-.55957,1.36133-.90967,2.42578-1.0498l3.80078-.50439v-.08398c0-1.5957-.71387-2.39355-2.1416-2.39355h-.23145c-.60254,0-1.10254.1084-1.50098.3252-.39941.21729-.72461.58496-.97656,1.10254l-1.78516-.92383c.32129-.74219.85059-1.32666,1.58496-1.75342.73535-.42725,1.62793-.64062,2.67773-.64062h.31543c1.42773,0,2.5127.36035,3.25488,1.08154.74121.72119,1.1123,1.77441,1.1123,3.16016v6.8042h-2.03613v-1.63818c-.32227.58838-.79883,1.05371-1.42871,1.39648-.62988.34326-1.34375.51465-2.1416.51465h-.14746Zm3.44434-5.33398l-2.85645.41992c-.72754.09814-1.23535.25928-1.52246.48291-.28711.22412-.42969.57422-.42969,1.05029s.16406.85059.49316,1.12354.79395.40918,1.39648.40918h.20996c.82617,0,1.4834-.25488,1.97363-.76611s.73535-1.19336.73535-2.04785v-.67188Z"/><path class="cls-4" d="m217.07812,246.32568c-1.06445,0-1.94238-.16797-2.63574-.50391-.69238-.33643-1.23535-.8335-1.62695-1.49121l1.65918-1.23926c.2793.4624.62598.79443,1.03906.99756s.96289.30469,1.64844.30469h.27344c1.79199,0,2.6875-1.01514,2.6875-3.04492v-1.11328c-.72754,1.02246-1.80566,1.5332-3.2334,1.5332h-.14746c-.91016,0-1.70801-.2168-2.39355-.65088-.68652-.43408-1.21875-1.04297-1.59668-1.82715-.37793-.78369-.56641-1.69385-.56641-2.72998v-.56689c0-1.03613.18848-1.9458.56641-2.72998s.91016-1.39307,1.59668-1.82715c.68555-.43359,1.4834-.65088,2.39355-.65088h.14746c1.65137,0,2.82715.62988,3.52734,1.89014v-1.59619h2.03711v10.20605c0,1.60986-.42676,2.85205-1.28125,3.72754-.85352.87451-2.07129,1.3125-3.65332,1.3125h-.44141Zm.16797-6.53125h.18945c.8252,0,1.4873-.29736,1.98438-.89258.49707-.59473.74512-1.38232.74512-2.3623v-.5249c0-.99414-.24805-1.78174-.74512-2.36279-.49707-.58057-1.15918-.87109-1.98438-.87109h-.18945c-.85352,0-1.52637.2832-2.01562.8501-.49023.56738-.73535,1.34766-.73535,2.3418v.58789c0,.99414.24512,1.78174.73535,2.3623.48926.58154,1.16211.87158,2.01562.87158Z"/><path class="cls-4" d="m229.80371,242.10449c-1.56836,0-2.79004-.4585-3.66406-1.37549-.875-.9165-1.3125-2.22217-1.3125-3.9165v-.69287c0-1.66602.44727-2.97168,1.34375-3.9165.89551-.94531,2.10645-1.41748,3.63281-1.41748h.18945c1.45508,0,2.60742.45508,3.4541,1.36475.84668.91016,1.27051,2.13525,1.27051,3.67529v1.28076h-7.62305c.04199,1.05029.29785,1.83447.7666,2.35205.46875.51807,1.11621.77686,1.94238.77686h.31543c.62988,0,1.15137-.10791,1.56445-.3252.41211-.2168.74512-.54248.99707-.97656l1.67969,1.0918c-.37793.64404-.93066,1.15186-1.6582,1.52246-.72852.37109-1.58984.55664-2.58301.55664h-.31543Zm-2.6875-6.61475h5.35449v-.14697c0-.86816-.2207-1.52979-.66113-1.98486-.44141-.45459-1.05371-.68213-1.83789-.68213h-.16797c-.76953,0-1.38965.23779-1.8584.71387s-.74512,1.17578-.8291,2.1001Z"/><path class="cls-4" d="m245.88965,241.83154v-12.62109h-4.55664v-2.0791h11.5293v2.0791h-4.55762v12.62109h-2.41504Z"/><path class="cls-4" d="m258.1123,242.10449c-.9668,0-1.83105-.20654-2.59375-.61963-.76367-.4126-1.36914-1.01855-1.81641-1.81641-.44824-.79785-.67188-1.75684-.67188-2.87695v-.67188c0-1.13428.22363-2.09668.67188-2.8877.44727-.79053,1.05273-1.39648,1.81641-1.81641.7627-.41992,1.62695-.62988,2.59375-.62988h.18848c.96582,0,1.83398.20996,2.60449.62988.76953.41992,1.375,1.02588,1.81641,1.81641.44043.79102.66113,1.74658.66113,2.8667v.69287c0,1.12012-.2207,2.0791-.66113,2.87695-.44141.79785-1.04688,1.40381-1.81641,1.81641-.77051.41309-1.63867.61963-2.60449.61963h-.18848Zm0-1.97412h.16797c.79785,0,1.46289-.27295,1.99512-.81885.53125-.5459.79785-1.37207.79785-2.47803v-.77686c0-1.10596-.2666-1.92871-.79785-2.46777-.53223-.53857-1.19727-.80811-1.99512-.80811h-.16797c-.78418,0-1.44238.26953-1.97461.80811-.53223.53906-.79785,1.36182-.79785,2.46777v.77686c0,1.10596.26562,1.93213.79785,2.47803s1.19043.81885,1.97461.81885Z"/><path class="cls-4" d="m265.86133,241.83154v-15.33008h2.30957v8.9043l4.59961-4.32617h2.89746l-4.36816,4.05273,4.7041,6.69922h-2.79297l-3.56934-5.25-1.4707,1.36523v3.88477h-2.30957Z"/><path class="cls-4" d="m281.7998,242.10449c-1.56836,0-2.79004-.4585-3.66406-1.37549-.875-.9165-1.3125-2.22217-1.3125-3.9165v-.69287c0-1.66602.44727-2.97168,1.34375-3.9165.89551-.94531,2.10645-1.41748,3.63281-1.41748h.18945c1.45508,0,2.60742.45508,3.4541,1.36475.84668.91016,1.27051,2.13525,1.27051,3.67529v1.28076h-7.62305c.04199,1.05029.29785,1.83447.7666,2.35205.46875.51807,1.11621.77686,1.94238.77686h.31543c.62988,0,1.15137-.10791,1.56445-.3252.41211-.2168.74512-.54248.99707-.97656l1.67969,1.0918c-.37793.64404-.93066,1.15186-1.6582,1.52246-.72852.37109-1.58984.55664-2.58301.55664h-.31543Zm-2.6875-6.61475h5.35449v-.14697c0-.86816-.2207-1.52979-.66113-1.98486-.44141-.45459-1.05371-.68213-1.83789-.68213h-.16797c-.76953,0-1.38965.23779-1.8584.71387s-.74512,1.17578-.8291,2.1001Z"/><path class="cls-4" d="m289.1084,241.83154v-10.75195h2.03711v1.61719c.33594-.58838.79395-1.05371,1.375-1.39697.58105-.34277,1.27051-.51416,2.06836-.51416h.20996c1.21875,0,2.19141.37793,2.91895,1.13379.72852.75635,1.09277,1.84814,1.09277,3.27588v6.63623h-2.31055v-6.3208c0-.88232-.18848-1.55762-.56641-2.02686-.37793-.46875-.95215-.70312-1.72266-.70312h-.14648c-.44824,0-.875.11182-1.28125.33594s-.73535.56689-.9873,1.02881-.37793,1.0498-.37793,1.76416v5.92188h-2.30957Z"/><path class="cls-4" d="m305.61328,242.10449c-2.43555,0-3.99023-.81885-4.66211-2.45703l1.80566-.92383c.23828.50391.58496.875,1.04004,1.11279.45508.23828,1.06738.35693,1.83789.35693h.25195c1.44141,0,2.16211-.42676,2.16211-1.28076v-.08398c0-.72803-.45508-1.15527-1.36426-1.28125l-2.28906-.31494c-.99414-.13965-1.76074-.46533-2.2998-.97656-.53906-.51074-.80859-1.19336-.80859-2.04736v-.23096c0-.96582.37793-1.73926,1.13379-2.32031.75684-.58105,1.76465-.87158,3.02441-.87158h.29395c1.03613,0,1.9248.20996,2.66699.62988s1.2666,1.00098,1.5752,1.74316l-1.84766.81885c-.37891-.854-1.18359-1.28076-2.41504-1.28076h-.25195c-.61719,0-1.0957.11182-1.43945.33594-.34277.22412-.51367.53223-.51367.92383v.10498c0,.32227.10059.57764.30371.7666s.54297.31836,1.01855.38818l2.33105.31543c.99414.14014,1.76074.48633,2.2998,1.03906.53906.55322.80859,1.26367.80859,2.13184v.23096c0,1.03613-.37109,1.82373-1.11328,2.3623-.74219.53906-1.82715.80859-3.25488.80859h-.29395Z"/><path class="cls-4" d="m564.64453,241.83154v-12.62109h-4.55664v-2.0791h11.5293v2.0791h-4.55762v12.62109h-2.41504Z"/><path class="cls-4" d="m576.76172,242.10449c-1.56836,0-2.79004-.4585-3.66406-1.37549-.875-.9165-1.3125-2.22217-1.3125-3.9165v-.69287c0-1.66602.44727-2.97168,1.34375-3.9165.89551-.94531,2.10645-1.41748,3.63281-1.41748h.18945c1.45508,0,2.60742.45508,3.4541,1.36475.84668.91016,1.27051,2.13525,1.27051,3.67529v1.28076h-7.62305c.04199,1.05029.29785,1.83447.7666,2.35205.46875.51807,1.11621.77686,1.94238.77686h.31543c.62988,0,1.15137-.10791,1.56445-.3252.41211-.2168.74512-.54248.99707-.97656l1.67969,1.0918c-.37793.64404-.93066,1.15186-1.6582,1.52246-.72852.37109-1.58984.55664-2.58301.55664h-.31543Zm-2.6875-6.61475h5.35449v-.14697c0-.86816-.2207-1.52979-.66113-1.98486-.44141-.45459-1.05371-.68213-1.83789-.68213h-.16797c-.76953,0-1.38965.23779-1.8584.71387s-.74512,1.17578-.8291,2.1001Z"/><path class="cls-4" d="m590.49609,241.83154l-2.51953-3.84277-2.52051,3.84277h-2.60352l3.7793-5.48096-3.63281-5.271h2.70898l2.39453,3.65381,2.39355-3.65381h2.58301l-3.6543,5.29199,3.80176,5.45996h-2.73047Z"/><path class="cls-4" d="m600.07129,241.93652c-1.35742,0-2.32422-.30469-2.89746-.91357-.57422-.60889-.86133-1.48047-.86133-2.61426v-5.41797h-2.26758v-1.91113h2.26758v-3.1709h2.30957v3.1709h3.50781l-.27344,1.91113h-3.23438v5.31299c0,.60205.14062,1.03223.4209,1.2915.2793.25928.69922.38818,1.25977.38818h1.82715v1.95312h-2.05859Z"/><path class="cls-4" d="m613.19629,241.83154v-12.62109h-4.55664v-2.0791h11.5293v2.0791h-4.55762v12.62109h-2.41504Z"/><path class="cls-4" d="m625.41895,242.10449c-.9668,0-1.83105-.20654-2.59375-.61963-.76367-.4126-1.36914-1.01855-1.81641-1.81641-.44824-.79785-.67188-1.75684-.67188-2.87695v-.67188c0-1.13428.22363-2.09668.67188-2.8877.44727-.79053,1.05273-1.39648,1.81641-1.81641.7627-.41992,1.62695-.62988,2.59375-.62988h.18848c.96582,0,1.83398.20996,2.60449.62988.76953.41992,1.375,1.02588,1.81641,1.81641.44043.79102.66113,1.74658.66113,2.8667v.69287c0,1.12012-.2207,2.0791-.66113,2.87695-.44141.79785-1.04688,1.40381-1.81641,1.81641-.77051.41309-1.63867.61963-2.60449.61963h-.18848Zm0-1.97412h.16797c.79785,0,1.46289-.27295,1.99512-.81885.53125-.5459.79785-1.37207.79785-2.47803v-.77686c0-1.10596-.2666-1.92871-.79785-2.46777-.53223-.53857-1.19727-.80811-1.99512-.80811h-.16797c-.78418,0-1.44238.26953-1.97461.80811-.53223.53906-.79785,1.36182-.79785,2.46777v.77686c0,1.10596.26562,1.93213.79785,2.47803s1.19043.81885,1.97461.81885Z"/><path class="cls-4" d="m633.16699,241.83154v-15.33008h2.30957v8.9043l4.59961-4.32617h2.89746l-4.36816,4.05273,4.7041,6.69922h-2.79297l-3.56934-5.25-1.4707,1.36523v3.88477h-2.30957Z"/><path class="cls-4" d="m649.10645,242.10449c-1.56836,0-2.79004-.4585-3.66406-1.37549-.875-.9165-1.3125-2.22217-1.3125-3.9165v-.69287c0-1.66602.44727-2.97168,1.34375-3.9165.89551-.94531,2.10645-1.41748,3.63281-1.41748h.18945c1.45508,0,2.60742.45508,3.4541,1.36475.84668.91016,1.27051,2.13525,1.27051,3.67529v1.28076h-7.62305c.04199,1.05029.29785,1.83447.7666,2.35205.46875.51807,1.11621.77686,1.94238.77686h.31543c.62988,0,1.15137-.10791,1.56445-.3252.41211-.2168.74512-.54248.99707-.97656l1.67969,1.0918c-.37793.64404-.93066,1.15186-1.6582,1.52246-.72852.37109-1.58984.55664-2.58301.55664h-.31543Zm-2.6875-6.61475h5.35449v-.14697c0-.86816-.2207-1.52979-.66113-1.98486-.44141-.45459-1.05371-.68213-1.83789-.68213h-.16797c-.76953,0-1.38965.23779-1.8584.71387s-.74512,1.17578-.8291,2.1001Z"/><path class="cls-4" d="m656.41406,241.83154v-10.75195h2.03711v1.61719c.33594-.58838.79395-1.05371,1.375-1.39697.58105-.34277,1.27051-.51416,2.06836-.51416h.20996c1.21875,0,2.19141.37793,2.91895,1.13379.72852.75635,1.09277,1.84814,1.09277,3.27588v6.63623h-2.31055v-6.3208c0-.88232-.18848-1.55762-.56641-2.02686-.37793-.46875-.95215-.70312-1.72266-.70312h-.14648c-.44824,0-.875.11182-1.28125.33594s-.73535.56689-.9873,1.02881-.37793,1.0498-.37793,1.76416v5.92188h-2.30957Z"/><path class="cls-4" d="m672.91992,242.10449c-2.43555,0-3.99023-.81885-4.66211-2.45703l1.80566-.92383c.23828.50391.58496.875,1.04004,1.11279.45508.23828,1.06738.35693,1.83789.35693h.25195c1.44141,0,2.16211-.42676,2.16211-1.28076v-.08398c0-.72803-.45508-1.15527-1.36426-1.28125l-2.28906-.31494c-.99414-.13965-1.76074-.46533-2.2998-.97656-.53906-.51074-.80859-1.19336-.80859-2.04736v-.23096c0-.96582.37793-1.73926,1.13379-2.32031.75684-.58105,1.76465-.87158,3.02441-.87158h.29395c1.03613,0,1.9248.20996,2.66699.62988s1.2666,1.00098,1.5752,1.74316l-1.84766.81885c-.37891-.854-1.18359-1.28076-2.41504-1.28076h-.25195c-.61719,0-1.0957.11182-1.43945.33594-.34277.22412-.51367.53223-.51367.92383v.10498c0,.32227.10059.57764.30371.7666s.54297.31836,1.01855.38818l2.33105.31543c.99414.14014,1.76074.48633,2.2998,1.03906.53906.55322.80859,1.26367.80859,2.13184v.23096c0,1.03613-.37109,1.82373-1.11328,2.3623-.74219.53906-1.82715.80859-3.25488.80859h-.29395Z"/><path class="cls-4" d="m564.00391,42.59814v-12.62109h-4.55664v-2.0791h11.5293v2.0791h-4.55762v12.62109h-2.41504Z"/><path class="cls-4" d="m576.12109,42.87109c-1.56836,0-2.79004-.4585-3.66406-1.37549-.875-.9165-1.3125-2.22217-1.3125-3.9165v-.69287c0-1.66602.44727-2.97168,1.34375-3.9165.89551-.94531,2.10645-1.41748,3.63281-1.41748h.18945c1.45508,0,2.60742.45508,3.4541,1.36475.84668.91016,1.27051,2.13525,1.27051,3.67529v1.28076h-7.62305c.04199,1.05029.29785,1.83447.7666,2.35205.46875.51807,1.11621.77686,1.94238.77686h.31543c.62988,0,1.15137-.10791,1.56445-.3252.41211-.2168.74512-.54248.99707-.97656l1.67969,1.0918c-.37793.64404-.93066,1.15186-1.6582,1.52246-.72852.37109-1.58984.55664-2.58301.55664h-.31543Zm-2.6875-6.61475h5.35449v-.14697c0-.86816-.2207-1.52979-.66113-1.98486-.44141-.45459-1.05371-.68213-1.83789-.68213h-.16797c-.76953,0-1.38965.23779-1.8584.71387s-.74512,1.17578-.8291,2.1001Z"/><path class="cls-4" d="m589.85547,42.59814l-2.51953-3.84277-2.52051,3.84277h-2.60352l3.7793-5.48096-3.63281-5.271h2.70898l2.39453,3.65381,2.39355-3.65381h2.58301l-3.6543,5.29199,3.80176,5.45996h-2.73047Z"/><path class="cls-4" d="m599.43066,42.70312c-1.35742,0-2.32422-.30469-2.89746-.91357-.57422-.60889-.86133-1.48047-.86133-2.61426v-5.41797h-2.26758v-1.91113h2.26758v-3.1709h2.30957v3.1709h3.50781l-.27344,1.91113h-3.23438v5.31299c0,.60205.14062,1.03223.4209,1.2915.2793.25928.69922.38818,1.25977.38818h1.82715v1.95312h-2.05859Z"/><path class="cls-4" d="m615.39062,42.87109c-1.38574,0-2.57227-.29395-3.55859-.88184-.9873-.58789-1.74316-1.4209-2.26855-2.49902-.52441-1.07812-.78711-2.34473-.78711-3.80127v-.88184c0-1.45605.2627-2.72266.78711-3.80078.52539-1.07812,1.28125-1.91113,2.26855-2.49902.98633-.58838,2.17285-.88232,3.55859-.88232h.23145c1.39941,0,2.59375.29395,3.58008.88232.9873.58789,1.74023,1.4209,2.25781,2.49902s.77734,2.34473.77734,3.80078v.88184c0,1.45654-.25977,2.72314-.77734,3.80127s-1.27051,1.91113-2.25781,2.49902c-.98633.58789-2.18066.88184-3.58008.88184h-.23145Zm.02148-2.1001h.20996c1.31543,0,2.34863-.43359,3.09766-1.30176s1.12305-2.10693,1.12305-3.71729v-1.00781c0-1.60986-.37402-2.84863-1.12305-3.7168s-1.78223-1.30225-3.09766-1.30225h-.20996c-1.31641,0-2.34863.43408-3.09766,1.30225s-1.12305,2.10693-1.12305,3.7168v1.00781c0,1.61035.37402,2.84912,1.12305,3.71729s1.78125,1.30176,3.09766,1.30176Z"/><path class="cls-4" d="m628.74609,42.87109c-1.19043,0-2.13867-.37451-2.8457-1.12354-.70703-.74854-1.06055-1.8374-1.06055-3.26562v-6.63574h2.31055v6.2998c0,.89648.17773,1.57861.53516,2.04785s.89941.70312,1.62793.70312h.14648c.43359,0,.84375-.11182,1.22852-.33594.38477-.22363.7002-.57031.94531-1.03955.24414-.46875.36719-1.05322.36719-1.75342v-5.92188h2.31055v10.75195h-2.05859v-1.59619c-.32227.57422-.7627,1.0293-1.32324,1.36523-.55957.33594-1.22461.50391-1.99414.50391h-.18945Z"/><path class="cls-4" d="m641.95508,42.70312c-1.35742,0-2.32422-.30469-2.89746-.91357-.57422-.60889-.86133-1.48047-.86133-2.61426v-5.41797h-2.26758v-1.91113h2.26758v-3.1709h2.30957v3.1709h3.50781l-.27344,1.91113h-3.23438v5.31299c0,.60205.14062,1.03223.4209,1.2915.2793.25928.69922.38818,1.25977.38818h1.82715v1.95312h-2.05859Z"/><path class="cls-4" d="m646.42871,46.79834v-14.95215h2.03711v1.5752c.33594-.58838.80078-1.04688,1.39648-1.37598.59473-.32861,1.30469-.49316,2.13086-.49316h.12598c.88281,0,1.66602.20654,2.35254.61963.68555.41309,1.22852,1.01514,1.62695,1.80566.39941.79102.59863,1.76074.59863,2.90869v.69287c0,1.13428-.19922,2.09668-.59863,2.8877-.39844.79102-.94141,1.38965-1.62695,1.79541-.68652.40576-1.46973.60889-2.35254.60889h-.12598c-.71387,0-1.34766-.1333-1.90039-.39893s-1.00488-.64404-1.35449-1.13379v5.45996h-2.30957Zm4.99805-5.90137h.16797c.79785,0,1.46289-.26562,1.99512-.79785.53125-.53174.79785-1.37207.79785-2.52002v-.71387c0-1.14795-.2666-1.98779-.79785-2.52002-.53223-.53174-1.19727-.79785-1.99512-.79785h-.16797c-.47656,0-.9209.11182-1.33398.33594s-.74902.58105-1.00781,1.0708c-.25879.49023-.38867,1.13428-.38867,1.93213v.65088c0,.78418.12988,1.4248.38867,1.92139.25879.49707.59863.86133,1.01855,1.09229s.86133.34619,1.32324.34619Z"/><path class="cls-4" d="m662.91309,42.87109c-1.19043,0-2.13867-.37451-2.8457-1.12354-.70703-.74854-1.06055-1.8374-1.06055-3.26562v-6.63574h2.31055v6.2998c0,.89648.17773,1.57861.53516,2.04785s.89941.70312,1.62793.70312h.14648c.43359,0,.84375-.11182,1.22852-.33594.38477-.22363.7002-.57031.94531-1.03955.24414-.46875.36719-1.05322.36719-1.75342v-5.92188h2.31055v10.75195h-2.05859v-1.59619c-.32227.57422-.7627,1.0293-1.32324,1.36523-.55957.33594-1.22461.50391-1.99414.50391h-.18945Z"/><path class="cls-4" d="m676.12207,42.70312c-1.35742,0-2.32422-.30469-2.89746-.91357-.57422-.60889-.86133-1.48047-.86133-2.61426v-5.41797h-2.26758v-1.91113h2.26758v-3.1709h2.30957v3.1709h3.50781l-.27344,1.91113h-3.23438v5.31299c0,.60205.14062,1.03223.4209,1.2915.2793.25928.69922.38818,1.25977.38818h1.82715v1.95312h-2.05859Z"/></svg>